<svg width="308" height="214" fill="none" xmlns="http://www.w3.org/2000/svg"><path d="M0 19.955C0 8.934 8.934 0 19.955 0h268.09C299.066 0 308 8.934 308 19.955v174.09c0 11.021-8.934 19.955-19.955 19.955H19.955C8.934 214 0 205.066 0 194.045V19.955z" fill="#150B00"/><path d="M119.494 158.999h-6.471l-1.192 3.299h-2.043l5.364-14.75h2.235l5.342 14.75h-2.043l-1.192-3.299zm-.553-1.575l-2.682-7.492-2.682 7.492h5.364zm20.153-7.003c.908 0 1.717.192 2.426.575.71.369 1.27.929 1.682 1.681.411.752.617 1.668.617 2.746v6.875h-1.916V155.7c0-1.164-.29-2.051-.872-2.661-.568-.624-1.341-.936-2.32-.936-1.008 0-1.81.326-2.406.979-.595.638-.893 1.568-.893 2.788v6.428h-1.916V155.7c0-1.164-.291-2.051-.873-2.661-.567-.624-1.341-.936-2.32-.936-1.007 0-1.809.326-2.405.979-.596.638-.894 1.568-.894 2.788v6.428h-1.937v-11.664h1.937v1.681a3.843 3.843 0 011.532-1.404 4.734 4.734 0 012.15-.49c.979 0 1.845.22 2.597.66.752.44 1.313 1.085 1.682 1.937a3.824 3.824 0 011.617-1.916 4.765 4.765 0 012.512-.681zm7.179 6.002c0-1.192.241-2.234.723-3.128.483-.909 1.143-1.611 1.98-2.108.851-.496 1.795-.745 2.831-.745 1.021 0 1.908.22 2.66.66.752.44 1.313.993 1.682 1.66v-2.128h1.958v11.664h-1.958v-2.171c-.383.681-.958 1.249-1.724 1.703-.752.44-1.632.66-2.64.66-1.035 0-1.972-.256-2.809-.767-.837-.51-1.497-1.227-1.98-2.149-.482-.923-.723-1.973-.723-3.151zm9.876.022c0-.88-.177-1.646-.532-2.299a3.662 3.662 0 00-1.448-1.49 3.792 3.792 0 00-1.979-.532c-.724 0-1.384.17-1.98.511-.596.34-1.071.837-1.426 1.49-.354.652-.532 1.419-.532 2.298 0 .894.178 1.675.532 2.342.355.653.83 1.156 1.426 1.511a3.916 3.916 0 001.98.511c.724 0 1.383-.17 1.979-.511a3.806 3.806 0 001.448-1.511c.355-.667.532-1.44.532-2.32zm6.679 4.257h5.725v1.596h-7.939v-1.596l5.662-8.493h-5.619v-1.575h7.854v1.575l-5.683 8.493zm13.326 1.788c-1.093 0-2.086-.249-2.98-.745a5.413 5.413 0 01-2.086-2.108c-.497-.922-.745-1.986-.745-3.192 0-1.192.255-2.242.766-3.15.525-.923 1.235-1.625 2.129-2.108.894-.496 1.894-.745 3.001-.745s2.107.249 3.001.745a5.234 5.234 0 012.107 2.086c.525.908.788 1.966.788 3.172 0 1.206-.27 2.27-.809 3.192a5.48 5.48 0 01-2.15 2.108c-.908.496-1.915.745-3.022.745zm0-1.703c.695 0 1.348-.163 1.958-.49.61-.326 1.1-.816 1.469-1.468.383-.653.574-1.448.574-2.384 0-.937-.184-1.731-.553-2.384-.369-.653-.851-1.135-1.447-1.448a3.973 3.973 0 00-1.937-.489c-.71 0-1.363.163-1.959.489-.581.313-1.05.795-1.404 1.448-.355.653-.533 1.447-.533 2.384 0 .95.171 1.752.511 2.405.355.653.823 1.142 1.405 1.469.582.312 1.22.468 1.916.468zm14.211-10.366c1.419 0 2.568.433 3.448 1.298.88.852 1.319 2.086 1.319 3.704v6.875h-1.915V155.7c0-1.164-.291-2.051-.873-2.661-.582-.624-1.376-.936-2.384-.936-1.021 0-1.837.319-2.448.957-.596.639-.894 1.568-.894 2.789v6.449h-1.936v-11.664h1.936v1.66a3.869 3.869 0 011.554-1.383 4.913 4.913 0 012.193-.49z" fill="#fff"/><path d="M182.039 122.616c-.661-.819-6.356-1.525-9.83.914-.53.374-.443.891.153.822 1.954-.23 6.312-.753 7.084.238.775.993-.864 5.093-1.599 6.92-.225.555.255.778.755.362 3.266-2.719 4.103-8.429 3.437-9.256z" fill="#FF8000"/><path d="M176.044 126.053c-6.804 2.89-14.205 4.281-20.94 4.281-9.971 0-19.635-2.731-27.442-7.277-.681-.401-1.189.3-.622.812 7.238 6.54 16.803 10.472 27.428 10.472 7.582 0 16.379-2.385 22.455-6.862 1.003-.742.149-1.857-.879-1.426z" fill="#FF8000"/><path d="M178.455 110.572c-2.042-2.836-4.203-5.126-4.203-10.346V82.832c0-7.355.521-14.121-4.904-19.196-4.289-4.11-11.379-5.553-16.821-5.553-10.611 0-22.452 3.955-24.955 17.078-.256 1.4.769 2.135 1.657 2.34l10.85 1.162c.991-.042 1.735-1.034 1.931-2.042.914-4.519 4.724-6.697 8.979-6.697 2.289 0 4.887.845 6.253 2.904 1.555 2.29 1.342 5.434 1.342 8.082v1.435c-6.459.752-14.917 1.222-20.982 3.888-6.971 2.998-11.901 9.166-11.901 18.222 0 11.593 7.313 17.394 16.702 17.394 7.945 0 12.285-1.871 18.402-8.116 2.025 2.939 2.691 4.374 6.399 7.45.837.444 1.896.393 2.64-.257l.034.017c2.221-1.965 6.262-5.51 8.552-7.407.905-.768.751-1.965.025-2.964zm-19.871-16.873c0 4.349.119 7.971-2.085 11.832-1.768 3.144-4.579 5.067-7.723 5.067-4.28 0-6.766-3.255-6.766-8.082 0-9.509 8.518-11.235 16.574-11.235V93.7zM268.667 15.17c-.248-.342-.653-.495-1.022-.495-.521 0-1.007.267-1.221.84-.248-.572-.594-.84-1.146-.84-.544 0-.948.267-1.164.84h-.015v-.593a.165.165 0 00-.16-.15h-.823a.167.167 0 00-.171.162v4.533a.166.166 0 00.159.15h.883c.094 0 .17-.075.17-.165V17.05c0-.524-.026-1.25.608-1.25.628 0 .546.744.546 1.25v2.403c0 .087.07.157.16.163h.881a.167.167 0 00.171-.163V17.05c0-.258-.008-.64.081-.869a.588.588 0 01.528-.371c.257 0 .454.086.52.39.042.182.025.659.025.85v2.403c0 .087.071.157.159.163h.882c.094 0 .17-.073.17-.163l.001-2.86c0-.486.057-1.04-.222-1.421zm11.64-.494c-1.278 0-1.987 1.097-1.987 2.508 0 1.402.7 2.527 1.987 2.527 1.236 0 2.019-1.097 2.019-2.48.004-1.43-.708-2.555-2.019-2.555zm0 4.1c-.693 0-.685-1.182-.685-1.736 0-.552.042-1.439.692-1.439.279 0 .479.123.577.439.116.362.132.82.132 1.202.003.581-.03 1.535-.716 1.535zm-6.473.011c-.161-.224-.332-.405-.332-.818v-1.377c0-.582.04-1.118-.389-1.52-.339-.324-.901-.439-1.33-.439-.84 0-1.779.313-1.975 1.352-.021.11.059.169.131.185l.856.092c.08-.003.139-.082.154-.162.073-.357.373-.53.71-.53.182 0 .388.067.494.23.125.181.109.43.109.64l-.001.112c-.512.059-1.181.096-1.661.307-.553.239-.941.727-.941 1.444 0 .917.578 1.376 1.321 1.376.627 0 .972-.148 1.456-.642.16.232.213.346.506.59a.187.187 0 00.21-.02h.001c.177-.155.497-.436.676-.586.071-.059.061-.155.005-.234zm-1.573-1.335c0 .344.009.63-.166.936-.139.25-.363.401-.609.401-.34 0-.539-.257-.539-.64 0-.752.675-.888 1.314-.888v.191zm14.126-2.243c-.248-.39-.637-.534-1.033-.535-.609 0-.957.296-1.203.915h-.014v-.693a.17.17 0 00-.159-.127h-.818a.168.168 0 00-.171.149l.002 4.534c0 .087.069.158.159.164h.878a.17.17 0 00.174-.165v-2.439c0-.306.015-.581.141-.859.098-.218.295-.362.511-.362.608 0 .55.726.55 1.221v2.462c.007.076.077.136.156.143h.886c.089 0 .16-.064.172-.143V16.62c0-.44 0-1.048-.231-1.412zm-8.641 3.18c-.508-.285-1.096-.37-1.656-.355l1.506-2.147c.139-.194.218-.315.218-.408v-.555a.161.161 0 00-.168-.165h-2.902a.159.159 0 00-.164.165v.648c0 .097.073.163.168.163h1.517l-1.743 2.5c-.106.16-.107.34-.107.445v.657c0 .095.108.204.208.149a3.34 3.34 0 013.064-.005c.111.057.214-.054.214-.148v-.693c-.01-.092-.04-.188-.155-.251z" fill="#FFFBF7"/><path d="M277.182 20.03c-.18-.223-1.735-.416-2.684.25-.145.102-.121.243.042.224.533-.062 1.723-.205 1.934.065.212.271-.236 1.391-.436 1.89-.062.152.069.213.206.099.892-.742 1.12-2.302.938-2.527z" fill="#FF8000"/><path d="M275.55 20.968a14.896 14.896 0 01-5.718 1.17c-2.722 0-5.361-.747-7.493-1.988-.186-.11-.325.082-.17.222 1.977 1.785 4.588 2.86 7.49 2.86 2.07 0 4.472-.652 6.131-1.874.274-.203.041-.507-.24-.39z" fill="#FF8000"/><path d="M262.255 18.787c-.161-.224-.333-.405-.333-.818v-1.377c0-.582.042-1.118-.388-1.52-.339-.324-.9-.439-1.331-.439-.84 0-1.777.313-1.975 1.352-.02.11.061.169.131.185l.859.092c.078-.003.137-.082.153-.162.072-.357.374-.53.71-.53.182 0 .387.067.495.23.123.181.106.43.106.64v.113c-.511.06-1.18.097-1.66.308-.552.237-.942.726-.942 1.442 0 .918.579 1.377 1.322 1.377.629 0 .972-.148 1.456-.642.16.232.213.346.507.59.066.034.15.03.209-.021l.002.001c.176-.155.496-.436.677-.586.072-.06.06-.155.002-.235zm-1.573-1.335c0 .344.01.63-.165.936-.139.25-.362.401-.611.401-.338 0-.535-.257-.535-.64 0-.752.674-.888 1.311-.888v.191z" fill="#FFFBF7"/></svg>