<svg width="308" height="214" fill="none" xmlns="http://www.w3.org/2000/svg"><path d="M0 15C0 6.716 6.716 0 15 0h278c8.284 0 15 6.716 15 15v184c0 8.284-6.716 15-15 15H15c-8.284 0-15-6.716-15-15V15z" fill="url(#paint0_radial_32_3994)"/><path d="M154.232 67.785c-12.27-.01-22.222 9.928-22.232 22.197-.01 12.27 9.928 22.222 22.197 22.232 12.268-.01 22.213-9.947 22.232-22.214 0-12.263-9.935-22.204-22.197-22.215zm-.035 40.732c-10.227 0-18.517-8.291-18.517-18.517 0-10.227 8.29-18.518 18.517-18.518 10.224.01 18.508 8.294 18.518 18.518 0 10.226-8.291 18.517-18.518 18.517z" fill="#fff"/><path d="M160.197 88.916a4.059 4.059 0 002.011-4.195c-.344-2.596-3.438-3.576-5.88-3.782v-3.903h-2.407v3.868h-1.616v-3.868h-2.407v3.868h-4.849v2.493h1.805c.808 0 1.204.241 1.204.894v10.712c0 .894-.447 1.17-.929 1.17h-1.839v2.544h4.676v3.955h2.425v-3.955h1.616v3.955h2.355v-3.955h.516c4.952 0 6.603-2.424 6.603-5.725a4.282 4.282 0 00-3.284-4.076zm-7.892-5.364h1.719c1.204 0 3.576.206 3.576 2.166a2.425 2.425 0 01-2.115 2.562h-3.18v-4.728zm2.665 12.38v-.018h-2.665v-5.158h3.095c.722 0 3.438.241 3.438 2.167 0 1.925-1.289 3.009-3.868 3.009zm-21.154 56.324c.406.064.774.229 1.104.496.342.267.608.597.8.992.203.395.304.816.304 1.264a2.83 2.83 0 01-.432 1.536c-.288.448-.709.805-1.264 1.072-.544.256-1.189.384-1.936.384h-4.16v-11.152h4c.758 0 1.403.128 1.936.384.534.245.934.581 1.2 1.008.267.427.4.907.4 1.44 0 .661-.181 1.211-.544 1.648-.352.427-.821.736-1.408.928zm-4.128-.592h2.448c.683 0 1.211-.16 1.584-.48.374-.32.56-.763.56-1.328 0-.565-.186-1.008-.56-1.328-.373-.32-.912-.48-1.616-.48h-2.416v3.616zm2.576 5.136c.726 0 1.291-.171 1.696-.512.406-.341.608-.816.608-1.424 0-.619-.213-1.104-.64-1.456-.426-.363-.997-.544-1.712-.544h-2.528v3.936h2.576zm6.533-8.992a.958.958 0 01-.704-.288.958.958 0 01-.288-.704c0-.277.096-.512.288-.704a.958.958 0 01.704-.288c.267 0 .491.096.672.288a.958.958 0 01.288.704.958.958 0 01-.288.704.886.886 0 01-.672.288zm.704 1.424V158h-1.456v-8.768h1.456zm4.257 1.2v5.168c0 .427.091.731.272.912.182.171.496.256.944.256h1.072V158h-1.312c-.81 0-1.418-.187-1.824-.56-.405-.373-.608-.987-.608-1.84v-5.168h-1.136v-1.2h1.136v-2.208h1.456v2.208h2.288v1.2h-2.288zm3.509 3.168c0-.907.181-1.696.544-2.368a3.909 3.909 0 011.504-1.584c.65-.373 1.392-.56 2.224-.56 1.077 0 1.962.261 2.656.784.704.523 1.168 1.248 1.392 2.176h-1.568a2.243 2.243 0 00-.88-1.264c-.427-.309-.96-.464-1.6-.464-.832 0-1.504.288-2.016.864-.512.565-.768 1.371-.768 2.416 0 1.056.256 1.872.768 2.448.512.576 1.184.864 2.016.864.64 0 1.173-.149 1.6-.448.426-.299.72-.725.88-1.28h1.568c-.235.896-.704 1.616-1.408 2.16-.704.533-1.584.8-2.64.8-.832 0-1.574-.187-2.224-.56a3.909 3.909 0 01-1.504-1.584c-.363-.683-.544-1.483-.544-2.4zm14.086 4.544a4.538 4.538 0 01-2.24-.56 4.068 4.068 0 01-1.568-1.584c-.373-.693-.56-1.493-.56-2.4 0-.896.192-1.685.576-2.368a4.015 4.015 0 011.6-1.584c.672-.373 1.424-.56 2.256-.56.832 0 1.584.187 2.256.56.672.363 1.2.885 1.584 1.568.395.683.592 1.477.592 2.384 0 .907-.202 1.707-.608 2.4a4.108 4.108 0 01-1.616 1.584c-.682.373-1.44.56-2.272.56zm0-1.28c.523 0 1.014-.123 1.472-.368a2.74 2.74 0 001.104-1.104c.288-.491.432-1.088.432-1.792s-.138-1.301-.416-1.792c-.277-.491-.64-.853-1.088-1.088a2.986 2.986 0 00-1.456-.368c-.533 0-1.024.123-1.472.368-.437.235-.789.597-1.056 1.088-.266.491-.4 1.088-.4 1.792 0 .715.128 1.317.384 1.808.267.491.619.859 1.056 1.104.438.235.918.352 1.44.352zm7.163-9.056a.957.957 0 01-.704-.288.958.958 0 01-.288-.704c0-.277.096-.512.288-.704a.957.957 0 01.704-.288.89.89 0 01.672.288.958.958 0 01.288.704.958.958 0 01-.288.704.89.89 0 01-.672.288zm.704 1.424V158h-1.456v-8.768h1.456zm6.753-.16c1.067 0 1.931.325 2.592.976.662.64.992 1.568.992 2.784V158h-1.44v-4.96c0-.875-.218-1.541-.656-2-.437-.469-1.034-.704-1.792-.704-.768 0-1.381.24-1.84.72-.448.48-.672 1.179-.672 2.096V158h-1.456v-8.768h1.456v1.248a2.905 2.905 0 011.168-1.04 3.706 3.706 0 011.648-.368z" fill="#fff"/><defs><radialGradient id="paint0_radial_32_3994" cx="0" cy="0" r="1" gradientUnits="userSpaceOnUse" gradientTransform="matrix(0 214 -308 0 144.332 0)"><stop stop-color="#FF8000"/><stop offset="1" stop-color="#E34141"/></radialGradient></defs></svg>