<svg width="308" height="214" fill="none" xmlns="http://www.w3.org/2000/svg"><path d="M0 15C0 6.716 6.716 0 15 0h278c8.284 0 15 6.716 15 15v184c0 8.284-6.716 15-15 15H15c-8.284 0-15-6.716-15-15V15z" fill="url(#paint0_linear_32_4004)"/><path d="M154.173 96.733L142 90.942l12.173 21.273 12.173-21.273-12.173 5.79zm10.848-10.107l-10.848-18.84-10.86 18.862 10.86-5.151 10.848 5.13z" fill="#fff"/><path d="M144.255 89.093l9.918 4.698 9.935-4.706-9.935-4.698-9.918 4.706zm-26.567 58.939v3.728h4.064v1.2h-4.064v3.84h4.544v1.2h-6v-11.168h6v1.2h-4.544zm8.524 2.4v5.168c0 .427.09.731.272.912.181.171.496.256.944.256h1.072V158h-1.312c-.811 0-1.419-.187-1.824-.56-.406-.373-.608-.987-.608-1.84v-5.168h-1.136v-1.2h1.136v-2.208h1.456v2.208h2.288v1.2h-2.288zm8.404-1.36c.661 0 1.258.144 1.792.432a2.92 2.92 0 011.248 1.264c.309.565.464 1.253.464 2.064V158h-1.44v-4.96c0-.875-.219-1.541-.656-2-.438-.469-1.035-.704-1.792-.704-.768 0-1.382.24-1.84.72-.448.48-.672 1.179-.672 2.096V158h-1.456v-11.84h1.456v4.32a2.873 2.873 0 011.184-1.04 3.914 3.914 0 011.712-.368zm13.882 4.208c0 .277-.016.571-.048.88h-7.008c.053.864.347 1.541.88 2.032.544.48 1.2.72 1.968.72.629 0 1.152-.144 1.568-.432.427-.299.725-.693.896-1.184h1.568a3.807 3.807 0 01-1.408 2.064c-.704.523-1.579.784-2.624.784-.832 0-1.579-.187-2.24-.56a3.984 3.984 0 01-1.536-1.584c-.373-.693-.56-1.493-.56-2.4 0-.907.181-1.701.544-2.384a3.781 3.781 0 011.52-1.568c.661-.373 1.419-.56 2.272-.56.832 0 1.568.181 2.208.544a3.7 3.7 0 011.472 1.504c.352.629.528 1.344.528 2.144zm-1.504-.304c0-.555-.123-1.029-.368-1.424a2.316 2.316 0 00-1.008-.912 3.01 3.01 0 00-1.392-.32c-.736 0-1.365.235-1.888.704-.512.469-.805 1.12-.88 1.952h5.536zm4.882-2.32a2.81 2.81 0 011.088-1.168c.48-.277 1.061-.416 1.744-.416v1.504h-.384c-1.632 0-2.448.885-2.448 2.656V158h-1.456v-8.768h1.456v1.424zm12.513 2.624c0 .277-.016.571-.048.88h-7.008c.053.864.346 1.541.88 2.032.544.48 1.2.72 1.968.72.629 0 1.152-.144 1.568-.432.426-.299.725-.693.896-1.184h1.568a3.807 3.807 0 01-1.408 2.064c-.704.523-1.579.784-2.624.784-.832 0-1.579-.187-2.24-.56a3.984 3.984 0 01-1.536-1.584c-.374-.693-.56-1.493-.56-2.4 0-.907.181-1.701.544-2.384a3.775 3.775 0 011.52-1.568c.661-.373 1.418-.56 2.272-.56.832 0 1.568.181 2.208.544.64.363 1.13.864 1.472 1.504.352.629.528 1.344.528 2.144zm-1.504-.304c0-.555-.123-1.029-.368-1.424a2.327 2.327 0 00-1.008-.912 3.01 3.01 0 00-1.392-.32c-.736 0-1.366.235-1.888.704-.512.469-.806 1.12-.88 1.952h5.536zm11.202-3.744V158h-1.456v-1.296c-.278.448-.667.8-1.168 1.056a3.604 3.604 0 01-1.632.368c-.683 0-1.296-.139-1.84-.416a3.186 3.186 0 01-1.296-1.28c-.31-.565-.464-1.253-.464-2.064v-5.136h1.44v4.944c0 .864.218 1.531.656 2 .437.459 1.034.688 1.792.688.778 0 1.392-.24 1.84-.72.448-.48.672-1.179.672-2.096v-4.816h1.456zm13.002-.16c.683 0 1.291.144 1.824.432.533.277.955.699 1.264 1.264.309.565.464 1.253.464 2.064V158h-1.44v-4.96c0-.875-.219-1.541-.656-2-.427-.469-1.008-.704-1.744-.704-.757 0-1.36.245-1.808.736-.448.48-.672 1.179-.672 2.096V158h-1.44v-4.96c0-.875-.219-1.541-.656-2-.427-.469-1.008-.704-1.744-.704-.757 0-1.36.245-1.808.736-.448.48-.672 1.179-.672 2.096V158h-1.456v-8.768h1.456v1.264a2.886 2.886 0 011.152-1.056 3.567 3.567 0 011.616-.368c.736 0 1.387.165 1.952.496.565.331.987.816 1.264 1.456a2.873 2.873 0 011.216-1.44 3.585 3.585 0 011.888-.512z" fill="#fff"/><defs><linearGradient id="paint0_linear_32_4004" x1="182.519" y1="-51.879" x2="319.144" y2="235.696" gradientUnits="userSpaceOnUse"><stop stop-color="#00E0FF"/><stop offset="1" stop-color="#0047FF"/></linearGradient></defs></svg>