<svg width="308" height="215" fill="none" xmlns="http://www.w3.org/2000/svg"><path d="M0 20.282C0 9.262 8.934.327 19.955.327h268.09C299.066.327 308 9.261 308 20.282v174.09c0 11.021-8.934 19.955-19.955 19.955H19.955C8.934 214.327 0 205.393 0 194.372V20.282z" fill="url(#paint0_linear_32_4112)"/><g clip-path="url(#clip0_32_4112)"><path d="M180.737 85.931l-11.49-6.636-15.742 11.762 15.742 11.763 11.529-6.659a5.928 5.928 0 002.871-5.103c0-2.103-1.073-4.011-2.91-5.127z" fill="#FF9100"/><path d="M157.484 91.058l-13.93 17.91-18.109 14.262a6.05 6.05 0 01-1.791-4.299V63.086c0-1.672.677-3.184 1.791-4.298l18.109 14.36 13.93 17.91z" fill="#25D9F8"/><path d="M157.485 91.058l-3.98 5.134V85.924l3.98 5.134z" fill="#00C0F1"/><path d="M169.267 79.277l-11.781 11.78-32.039-32.27a8.968 8.968 0 011.234-.915 5.893 5.893 0 016.05.12l20.775 12.21 15.761 9.075z" fill="#7FE881"/><path d="M169.266 79.277l-11.781 11.78-3.98-3.98V70.204l15.761 9.074z" fill="#5BC980"/><path d="M169.267 102.838l-15.761 9.075-20.815 12.152c-.955.557-1.99.875-3.065.875-.995 0-1.99-.278-2.945-.796a8.947 8.947 0 01-1.234-.915l32.039-32.172 11.781 11.781z" fill="#FF637B"/><path d="M169.266 102.838l-15.761 9.075V95.037l3.98-3.98 11.781 11.781z" fill="#E63950"/></g><g clip-path="url(#clip1_32_4112)"><path d="M285.875 18.085l-2.479-1.432-3.395 2.537 3.395 2.537 2.487-1.436c.388-.236.619-.647.619-1.1 0-.454-.231-.866-.627-1.106z" fill="#FF9100"/><path d="M280.858 19.19l-3.004 3.863-3.906 3.076a1.301 1.301 0 01-.386-.927V13.157c0-.36.145-.687.386-.928l3.906 3.098 3.004 3.863z" fill="#25D9F8"/><path d="M280.859 19.19l-.858 1.107v-2.215l.858 1.108z" fill="#00C0F1"/><path d="M283.4 16.649l-2.541 2.541-6.911-6.96a1.91 1.91 0 01.266-.198 1.271 1.271 0 011.305.026L280 14.692l3.4 1.957z" fill="#7FE881"/><path d="M283.4 16.65l-2.541 2.54-.858-.858v-3.64l3.399 1.957z" fill="#5BC980"/><path d="M283.4 21.731l-3.4 1.957-4.489 2.622a1.31 1.31 0 01-.661.188c-.215 0-.43-.06-.636-.171a1.91 1.91 0 01-.266-.198l6.911-6.939 2.541 2.541z" fill="#FF637B"/><path d="M283.4 21.731l-3.399 1.957v-3.64l.858-.858 2.541 2.541z" fill="#E63950"/></g><path d="M103.929 160.479h6.283c0 .111.003.268.01.469.022.528.033.885.033 1.071 0 2.3-.639 4.087-1.917 5.359-1.278 1.273-3.08 1.909-5.405 1.909-1.3 0-2.459-.197-3.477-.591a7.357 7.357 0 01-2.675-1.787 8.207 8.207 0 01-1.733-2.78 9.69 9.69 0 01-.596-3.416c0-1.235.202-2.374.607-3.416a7.991 7.991 0 011.82-2.758 7.794 7.794 0 012.718-1.786 9.033 9.033 0 013.336-.614c1.249 0 2.365.235 3.347.703.989.469 1.87 1.188 2.643 2.155l-1.885 1.463c-.534-.64-1.137-1.117-1.809-1.429-.671-.313-1.422-.469-2.253-.469-1.718 0-3.123.569-4.213 1.708-1.083 1.131-1.625 2.605-1.625 4.421 0 1.846.542 3.345 1.625 4.499 1.09 1.146 2.502 1.719 4.235 1.719 1.473 0 2.632-.353 3.477-1.06.845-.707 1.267-1.671 1.267-2.892v-.234h-3.813v-2.244zm16.919 3.115c0-.983-.307-1.813-.921-2.49-.614-.685-1.365-1.027-2.253-1.027-.881 0-1.632.342-2.253 1.027-.613.677-.92 1.507-.92 2.49 0 .982.307 1.816.92 2.5.621.678 1.372 1.016 2.253 1.016s1.629-.338 2.242-1.016c.621-.684.932-1.518.932-2.5zm-8.828-.023c0-.774.141-1.503.423-2.188.289-.692.7-1.306 1.235-1.842a5.522 5.522 0 011.819-1.217 5.6 5.6 0 012.156-.424 5.525 5.525 0 014.018 1.674 5.626 5.626 0 011.235 1.843c.281.684.422 1.403.422 2.154 0 .782-.141 1.515-.422 2.2a5.332 5.332 0 01-1.213 1.819 5.781 5.781 0 01-1.874 1.262 5.506 5.506 0 01-2.166.435 5.455 5.455 0 01-2.145-.435 5.474 5.474 0 01-1.83-1.239 5.729 5.729 0 01-1.235-1.854 5.686 5.686 0 01-.423-2.188zm21.869.023c0-.983-.307-1.813-.921-2.49-.614-.685-1.365-1.027-2.253-1.027-.881 0-1.632.342-2.253 1.027-.614.677-.92 1.507-.92 2.49 0 .982.306 1.816.92 2.5.621.678 1.372 1.016 2.253 1.016s1.628-.338 2.242-1.016c.621-.684.932-1.518.932-2.5zm-8.828-.023c0-.774.141-1.503.423-2.188a5.681 5.681 0 013.054-3.059 5.595 5.595 0 012.155-.424 5.53 5.53 0 014.019 1.674 5.642 5.642 0 011.235 1.843c.281.684.422 1.403.422 2.154 0 .782-.141 1.515-.422 2.2a5.32 5.32 0 01-1.214 1.819 5.767 5.767 0 01-1.873 1.262 5.507 5.507 0 01-2.167.435 5.453 5.453 0 01-2.144-.435 5.488 5.488 0 01-1.831-1.239 5.742 5.742 0 01-1.234-1.854 5.686 5.686 0 01-.423-2.188zm21.175-.044c0-1.095-.249-1.947-.747-2.557-.491-.61-1.181-.916-2.069-.916-.888 0-1.588.317-2.101.949-.506.626-.758 1.496-.758 2.613 0 1.124.245 1.991.736 2.601.491.61 1.184.916 2.08.916.845 0 1.531-.332 2.058-.994.534-.662.801-1.533.801-2.612zm2.286 4.666c0 2.069-.401 3.524-1.203 4.365-.801.849-2.151 1.273-4.051 1.273-1.415 0-2.545-.309-3.39-.926-.845-.611-1.274-1.426-1.289-2.445l2.524-.012c.036.454.242.8.617 1.039.376.238.903.357 1.582.357 1.003 0 1.726-.227 2.166-.681.44-.454.664-1.213.672-2.278l.021-1.406c-.419.61-.91 1.064-1.473 1.362-.556.297-1.195.446-1.917.446-1.451 0-2.596-.51-3.433-1.529-.831-1.027-1.246-2.43-1.246-4.209 0-1.69.426-3.052 1.278-4.086.852-1.042 1.964-1.563 3.336-1.563.838 0 1.553.182 2.145.547a3.104 3.104 0 011.31 1.552v-1.731h2.351v9.925zm3.357.659v-17.305h2.351v17.305h-2.351zm15.608-4.935h-8.21c.058.99.343 1.764.856 2.322.512.551 1.195.827 2.047.827.758 0 1.39-.164 1.895-.492.506-.327.946-.856 1.322-1.585l1.982 1.139c-.578 1.064-1.293 1.857-2.145 2.378-.852.521-1.852.781-3 .781-1.646 0-2.957-.517-3.932-1.552-.975-1.034-1.462-2.415-1.462-4.141 0-1.66.502-3.022 1.506-4.087 1.01-1.071 2.307-1.607 3.888-1.607 1.653 0 2.942.487 3.867 1.462.924.975 1.386 2.341 1.386 4.098v.457zm-2.437-1.63c-.094-.759-.375-1.336-.845-1.73-.469-.402-1.112-.603-1.928-.603-.772 0-1.393.194-1.863.581-.469.387-.798.971-.985 1.752h5.621zm14.362-2.947h.661c1.43 0 2.383-.16 2.859-.48.477-.32.715-.886.715-1.697 0-.871-.256-1.485-.769-1.842-.505-.357-1.44-.536-2.805-.536h-.661v4.555zm-.162 2.177v7.335h-2.416v-16.345h3.9c1.155 0 2.003.067 2.545.201a3.84 3.84 0 011.43.637c.498.379.888.893 1.169 1.54.282.641.423 1.348.423 2.122a5.36 5.36 0 01-.423 2.143c-.281.655-.671 1.169-1.169 1.541-.405.298-.881.51-1.43.636-.542.127-1.39.19-2.545.19h-1.484zm9.304 7.335v-17.305h2.35v17.305h-2.35zm15.38 0h-2.35v-1.373c-.419.61-.91 1.064-1.473 1.362-.556.297-1.195.446-1.917.446-1.452 0-2.596-.51-3.434-1.529-.83-1.027-1.246-2.43-1.246-4.209 0-1.69.426-3.052 1.279-4.086.852-1.042 1.964-1.563 3.336-1.563.837 0 1.552.182 2.144.547.599.357 1.036.874 1.311 1.552v-1.731h2.35v10.584zm-2.285-5.325c0-1.095-.249-1.947-.748-2.557-.491-.61-1.18-.916-2.068-.916-.889 0-1.589.317-2.102.949-.505.626-.758 1.496-.758 2.613 0 1.124.246 1.991.737 2.601.491.61 1.184.916 2.079.916.845 0 1.531-.332 2.058-.994.535-.662.802-1.533.802-2.612zm7.3 10.304h-2.415l2.816-5.895-3.77-9.668h2.6l1.885 5.482c.108.335.202.677.281 1.027.087.342.155.692.206 1.049.094-.372.318-.963.672-1.775l.054-.134 2.534-5.649h2.546l-7.409 15.563z" fill="#FFFBF7"/><defs><clipPath id="clip0_32_4112"><path fill="#fff" transform="translate(119.728 57.095)" d="M0 0h67.846v67.846H0z"/></clipPath><clipPath id="clip1_32_4112"><path fill="#fff" transform="translate(272.714 11.865)" d="M0 0h14.633v14.633H0z"/></clipPath><linearGradient id="paint0_linear_32_4112" x1="182.519" y1="-51.552" x2="319.144" y2="236.023" gradientUnits="userSpaceOnUse"><stop offset=".104" stop-color="#99FDD9"/><stop offset="1" stop-color="#1E62A2"/></linearGradient></defs></svg>