<svg width="309" height="214" fill="none" xmlns="http://www.w3.org/2000/svg"><path d="M.076 19.955C.076 8.934 9.01 0 20.031 0h268.09c11.021 0 19.955 8.934 19.955 19.955v174.09c0 11.021-8.934 19.955-19.955 19.955H20.031C9.01 214 .076 205.066.076 194.045V19.955z" fill="url(#paint0_linear_32_4089)"/><g clip-path="url(#clip0_32_4089)" fill="#FEFAF6"><path d="M128.321 80.109c-6.298 10.734-2.294 27.023 4.671 36.9 3.476 4.938 6.996 9.371 11.817 9.371.091 0 .182-.002.275-.006 2.265-.088 3.902-.773 5.484-1.435 1.777-.744 3.615-1.513 6.497-1.513 2.742 0 4.492.744 6.184 1.463 1.668.709 3.385 1.442 5.924 1.395 5.43-.099 8.764-4.882 11.706-9.101 3.069-4.406 4.609-8.684 5.128-10.318l.021-.065a.596.596 0 00-.324-.736l-.045-.018c-.956-.384-9.344-4.039-9.432-14-.082-8.094 6.292-12.38 7.571-13.156l.059-.036a.599.599 0 00.268-.386.589.589 0 00-.094-.457c-4.4-6.324-11.144-7.277-13.859-7.391a12.456 12.456 0 00-1.209-.059c-3.189 0-6.244 1.183-8.698 2.134-1.694.656-3.158 1.223-4.167 1.223-1.134 0-2.606-.574-4.31-1.238-2.279-.888-4.862-1.895-7.596-1.895-.065 0-.13 0-.193.002-6.358.092-12.365 3.664-15.678 9.322z"/><path d="M170.176 53.213c-3.85.154-8.469 2.481-11.23 5.657-2.346 2.67-4.637 7.12-4.034 11.606a.61.61 0 00.558.52c.26.019.525.03.79.03 3.764 0 7.826-2.046 10.599-5.34 2.919-3.478 4.395-7.941 3.949-11.94a.612.612 0 00-.632-.533z"/></g><g clip-path="url(#clip1_32_4089)" fill="#FEFAF6"><path d="M281.117 16.374c-1.125 1.757-.41 4.422.834 6.038.62.808 1.249 1.534 2.11 1.534l.049-.001c.404-.015.697-.127.979-.235.318-.122.646-.248 1.16-.248.49 0 .803.122 1.105.24.298.116.604.236 1.058.228.969-.016 1.565-.799 2.09-1.49.548-.72.823-1.42.916-1.688l.004-.01a.095.095 0 00-.058-.12.094.094 0 01-.008-.004c-.171-.063-1.669-.66-1.685-2.29-.014-1.325 1.124-2.026 1.352-2.153l.011-.006a.099.099 0 00.048-.063.096.096 0 00-.017-.075c-.786-1.035-1.99-1.191-2.475-1.21a2.389 2.389 0 00-.216-.01c-.569 0-1.115.194-1.553.35-.303.107-.564.2-.744.2-.203 0-.466-.094-.77-.203-.407-.145-.868-.31-1.356-.31h-.035c-1.135.016-2.208.6-2.799 1.526z"/><path d="M288.592 11.973c-.688.025-1.513.406-2.006.926-.418.437-.828 1.165-.72 1.899.007.046.048.081.1.085.046.003.094.005.141.005.672 0 1.397-.335 1.892-.874.522-.57.785-1.3.706-1.954-.007-.05-.057-.089-.113-.087z"/></g><path d="M63.595 160.329h-6.471l-1.192 3.3h-2.043l5.363-14.751h2.235l5.343 14.751h-2.043l-1.192-3.3zm-.554-1.575l-2.682-7.492-2.682 7.492h5.364zm8.064-4.64c.383-.667.95-1.22 1.702-1.66.767-.454 1.653-.681 2.661-.681 1.036 0 1.972.248 2.81.745.851.496 1.518 1.199 2 2.107.483.894.724 1.937.724 3.129 0 1.178-.241 2.228-.724 3.15-.482.922-1.149 1.639-2 2.15-.838.511-1.774.766-2.81.766-.993 0-1.873-.22-2.64-.66-.751-.454-1.326-1.014-1.724-1.681v7.684h-1.936v-17.199h1.936v2.15zm7.918 3.64c0-.88-.178-1.646-.533-2.299a3.665 3.665 0 00-1.447-1.49 3.925 3.925 0 00-1.98-.511c-.709 0-1.369.178-1.979.532-.596.341-1.078.845-1.447 1.512-.355.652-.532 1.412-.532 2.277 0 .88.177 1.653.532 2.32.369.653.851 1.157 1.447 1.511.61.341 1.27.511 1.98.511.723 0 1.383-.17 1.98-.511a3.802 3.802 0 001.446-1.511c.355-.667.533-1.447.533-2.341zm6.466-3.64c.383-.667.95-1.22 1.702-1.66.767-.454 1.653-.681 2.66-.681 1.037 0 1.973.248 2.81.745.852.496 1.519 1.199 2.001 2.107.483.894.724 1.937.724 3.129 0 1.178-.241 2.228-.724 3.15-.482.922-1.149 1.639-2 2.15-.838.511-1.774.766-2.81.766-.993 0-1.873-.22-2.64-.66-.752-.454-1.326-1.014-1.724-1.681v7.684h-1.936v-17.199h1.936v2.15zm7.917 3.64c0-.88-.177-1.646-.532-2.299a3.664 3.664 0 00-1.447-1.49 3.925 3.925 0 00-1.98-.511c-.709 0-1.369.178-1.979.532-.596.341-1.078.845-1.447 1.512-.355.652-.532 1.412-.532 2.277 0 .88.177 1.653.532 2.32.369.653.851 1.157 1.447 1.511.61.341 1.27.511 1.98.511.723 0 1.383-.17 1.979-.511a3.802 3.802 0 001.447-1.511c.355-.667.532-1.447.532-2.341zm14.908 6.024c-.979 0-1.859-.171-2.639-.511-.766-.355-1.37-.838-1.809-1.448-.44-.624-.667-1.341-.682-2.149h2.065a2.78 2.78 0 00.852 1.766c.51.468 1.248.703 2.213.703.923 0 1.646-.227 2.171-.682.539-.468.809-1.064.809-1.787 0-.568-.156-1.029-.468-1.384a2.997 2.997 0 00-1.171-.809c-.468-.184-1.1-.383-1.894-.596-.979-.255-1.767-.511-2.363-.766a3.922 3.922 0 01-1.511-1.192c-.412-.553-.617-1.291-.617-2.214 0-.808.205-1.525.617-2.149.411-.625.986-1.107 1.724-1.448.752-.34 1.611-.511 2.575-.511 1.391 0 2.526.348 3.406 1.043.894.696 1.398 1.618 1.511 2.767h-2.128c-.071-.567-.369-1.064-.894-1.49-.525-.439-1.221-.659-2.086-.659-.809 0-1.469.212-1.98.638-.51.412-.766.993-.766 1.745 0 .54.149.98.447 1.32.312.341.688.603 1.128.788.454.17 1.086.369 1.895.596.979.269 1.766.539 2.362.808a3.82 3.82 0 011.533 1.214c.425.539.638 1.277.638 2.213 0 .724-.191 1.405-.574 2.044-.384.638-.951 1.156-1.703 1.554-.752.397-1.639.596-2.661.596zm10.151-10.217v6.875c0 .567.121.972.362 1.213.241.227.66.341 1.256.341h1.426v1.639h-1.745c-1.079 0-1.888-.249-2.427-.745-.539-.497-.809-1.313-.809-2.448v-6.875h-1.511v-1.597h1.511v-2.937h1.937v2.937h3.044v1.597h-3.044zm10.478 10.259c-1.093 0-2.086-.248-2.98-.745a5.417 5.417 0 01-2.086-2.107c-.497-.922-.745-1.987-.745-3.193 0-1.192.256-2.242.766-3.15.525-.922 1.235-1.625 2.129-2.107.894-.497 1.894-.745 3.001-.745s2.107.248 3.001.745a5.222 5.222 0 012.107 2.086c.526.908.788 1.965.788 3.171 0 1.206-.27 2.271-.809 3.193a5.477 5.477 0 01-2.15 2.107c-.908.497-1.915.745-3.022.745zm0-1.703c.695 0 1.348-.163 1.958-.489.61-.327 1.1-.816 1.469-1.469.383-.653.575-1.447.575-2.384 0-.936-.185-1.731-.554-2.384-.369-.652-.851-1.135-1.447-1.447a3.963 3.963 0 00-1.937-.49c-.71 0-1.362.163-1.958.49-.582.312-1.05.795-1.405 1.447-.355.653-.532 1.448-.532 2.384 0 .951.17 1.753.51 2.405.355.653.824 1.143 1.405 1.469a3.992 3.992 0 001.916.468zm10.465-8.258a3.734 3.734 0 011.447-1.554c.639-.369 1.412-.553 2.32-.553v2h-.511c-2.171 0-3.256 1.178-3.256 3.534v6.343h-1.937v-11.665h1.937v1.895zm16.645 3.49c0 .369-.021.76-.063 1.171h-9.323c.071 1.15.461 2.051 1.17 2.703.724.639 1.597.958 2.619.958.837 0 1.532-.191 2.085-.575a3.13 3.13 0 001.192-1.575h2.086a5.06 5.06 0 01-1.873 2.746c-.936.695-2.1 1.043-3.49 1.043-1.107 0-2.101-.248-2.98-.745a5.316 5.316 0 01-2.044-2.107c-.496-.922-.745-1.987-.745-3.193s.242-2.263.724-3.171a5.023 5.023 0 012.022-2.086c.88-.497 1.887-.745 3.023-.745 1.106 0 2.085.241 2.937.723a4.93 4.93 0 011.958 2.001c.468.837.702 1.788.702 2.852zm-2-.404c0-.738-.163-1.369-.49-1.894a3.076 3.076 0 00-1.341-1.214 4.005 4.005 0 00-1.852-.425c-.979 0-1.816.312-2.511.936-.681.625-1.072 1.49-1.171 2.597h7.365zm21.619 6.684l-1.937-1.959c-.723.752-1.497 1.313-2.32 1.682-.823.355-1.752.532-2.788.532-1.022 0-1.93-.185-2.725-.553-.78-.369-1.39-.894-1.83-1.576-.426-.681-.639-1.475-.639-2.383 0-1.036.291-1.944.873-2.725.596-.795 1.469-1.419 2.618-1.873-.454-.539-.78-1.036-.979-1.49a3.672 3.672 0 01-.298-1.49c0-.624.156-1.185.468-1.681.327-.511.788-.909 1.384-1.192.596-.284 1.284-.426 2.064-.426.767 0 1.434.149 2.001.447.568.298.994.716 1.277 1.256.284.525.412 1.114.383 1.766h-1.936c.014-.581-.149-1.036-.49-1.362-.341-.34-.78-.511-1.32-.511-.567 0-1.028.163-1.383.49-.341.312-.511.716-.511 1.213 0 .426.113.837.341 1.235.241.397.638.886 1.191 1.468l4.428 4.449.383-.596 1.447-2.427h2.086l-1.745 3.023a16.79 16.79 0 01-.852 1.341l3.342 3.342h-2.533zm-7.045-1.405c.766 0 1.454-.149 2.065-.447.624-.298 1.213-.759 1.766-1.384l-4.363-4.384c-1.817.695-2.725 1.795-2.725 3.299 0 .837.298 1.532.894 2.086.61.553 1.398.83 2.363.83zm18.068-12.154c-.369 0-.681-.128-.937-.383a1.277 1.277 0 01-.383-.937c0-.369.128-.681.383-.936.256-.256.568-.383.937-.383.355 0 .653.127.894.383.255.255.383.567.383.936 0 .369-.128.681-.383.937a1.181 1.181 0 01-.894.383zm.936 1.894v11.665h-1.937v-11.665h1.937zm12.433-3.171v1.575h-4.044v13.261h-1.937v-13.261h-4.066v-1.575h10.047zm12.729 3.171v11.665h-1.937v-1.725a3.826 3.826 0 01-1.554 1.405c-.653.327-1.377.49-2.171.49-.908 0-1.724-.185-2.448-.554-.724-.383-1.298-.95-1.724-1.702-.412-.752-.617-1.668-.617-2.746v-6.833h1.915v6.577c0 1.15.291 2.037.873 2.661.582.61 1.376.915 2.384.915 1.036 0 1.852-.319 2.448-.958.596-.638.894-1.568.894-2.788v-6.407h1.937zm8.953-.212c1.419 0 2.568.432 3.448 1.298.88.851 1.32 2.086 1.32 3.703v6.876h-1.916v-6.599c0-1.163-.291-2.05-.872-2.66-.582-.625-1.377-.937-2.384-.937-1.022 0-1.838.319-2.448.958-.596.638-.894 1.568-.894 2.788v6.45h-1.937v-11.665H218v1.661a3.858 3.858 0 011.554-1.384 4.922 4.922 0 012.192-.489zm18.574 5.597c0 .369-.021.76-.064 1.171h-9.322c.071 1.15.461 2.051 1.17 2.703.724.639 1.597.958 2.618.958.838 0 1.533-.191 2.086-.575a3.13 3.13 0 001.192-1.575h2.086a5.06 5.06 0 01-1.873 2.746c-.936.695-2.1 1.043-3.491 1.043-1.106 0-2.1-.248-2.98-.745a5.32 5.32 0 01-2.043-2.107c-.497-.922-.745-1.987-.745-3.193s.241-2.263.724-3.171a5.023 5.023 0 012.022-2.086c.88-.497 1.887-.745 3.022-.745 1.107 0 2.086.241 2.938.723a4.93 4.93 0 011.958 2.001c.468.837.702 1.788.702 2.852zm-2-.404c0-.738-.164-1.369-.49-1.894a3.076 3.076 0 00-1.341-1.214 4.008 4.008 0 00-1.852-.425c-.979 0-1.816.312-2.511.936-.681.625-1.072 1.49-1.171 2.597h7.365zm8.686 6.875c-.894 0-1.695-.149-2.405-.447-.709-.312-1.27-.738-1.681-1.277a3.452 3.452 0 01-.682-1.894h2.001c.057.581.327 1.057.809 1.426.497.369 1.142.553 1.937.553.738 0 1.32-.163 1.745-.489.426-.327.639-.738.639-1.235 0-.511-.227-.887-.681-1.128-.454-.255-1.157-.504-2.107-.745-.866-.227-1.575-.454-2.129-.681a4.049 4.049 0 01-1.405-1.043c-.383-.468-.574-1.079-.574-1.831 0-.596.177-1.142.532-1.639.354-.496.858-.886 1.511-1.17.653-.298 1.398-.447 2.235-.447 1.291 0 2.334.326 3.129.979.794.653 1.22 1.547 1.277 2.682h-1.937c-.043-.61-.291-1.1-.745-1.469-.44-.369-1.036-.553-1.788-.553-.695 0-1.249.149-1.66.447-.412.298-.617.688-.617 1.17 0 .384.12.703.361.958.256.241.568.44.937.596a20.6 20.6 0 001.575.49c.837.227 1.518.454 2.043.681a3.39 3.39 0 011.341.979c.383.44.582 1.015.596 1.724 0 .639-.177 1.213-.532 1.724-.355.511-.858.915-1.511 1.213-.639.284-1.376.426-2.214.426z" fill="#fff"/><defs><clipPath id="clip0_32_4089"><path fill="#fff" transform="translate(118.372 53.212)" d="M0 0h74.497v73.167H0z"/></clipPath><clipPath id="clip1_32_4089"><path fill="#fff" transform="translate(279.34 11.973)" d="M0 0h13.303v11.973H0z"/></clipPath><linearGradient id="paint0_linear_32_4089" x1="182.595" y1="-51.879" x2="319.22" y2="235.696" gradientUnits="userSpaceOnUse"><stop stop-color="#00E0FF"/><stop offset="1" stop-color="#0047FF"/></linearGradient></defs></svg>