<svg width="309" height="215" fill="none" xmlns="http://www.w3.org/2000/svg"><path d="M.076 20.282C.076 9.262 9.01.327 20.031.327h268.091c11.02 0 19.954 8.934 19.954 19.955v174.09c0 11.021-8.934 19.955-19.954 19.955H20.031c-11.02 0-19.955-8.934-19.955-19.955V20.282z" fill="url(#paint0_linear_32_4133)"/><path d="M125.704 159.524c0 2.482-.616 4.434-1.85 5.855-1.227 1.421-2.936 2.132-5.126 2.132-2.239 0-3.968-.696-5.188-2.09-1.213-1.4-1.819-3.373-1.819-5.918 0-2.525.61-4.48 1.83-5.866 1.219-1.393 2.952-2.09 5.198-2.09 2.183 0 3.888.708 5.115 2.122 1.227 1.414 1.84 3.366 1.84 5.855zm-12.112 0c0 2.1.437 3.695 1.31 4.784.88 1.082 2.156 1.623 3.826 1.623 1.684 0 2.956-.541 3.816-1.623.859-1.082 1.289-2.677 1.289-4.784 0-2.086-.43-3.667-1.289-4.741-.853-1.082-2.118-1.623-3.795-1.623-1.684 0-2.967.544-3.847 1.633-.873 1.082-1.31 2.659-1.31 4.731zm21.522 7.775h-1.768v-13.906h-4.814v-1.602h11.395v1.602h-4.813v13.906zm19.982 0h-1.767v-7.298h-8.006v7.298h-1.767v-15.508h1.767v6.598h8.006v-6.598h1.767v15.508zm13.984 0h-8.473v-15.508h8.473v1.602h-6.706v4.996h6.301v1.591h-6.301v5.707h6.706v1.612zm6.477-6.449v6.449h-1.767v-15.508h4.169c1.865 0 3.24.365 4.128 1.093.894.728 1.341 1.824 1.341 3.288 0 2.051-1.019 3.437-3.057 4.158l4.128 6.969h-2.09l-3.681-6.449h-3.171zm0-1.549h2.423c1.247 0 2.162-.251 2.745-.753.582-.509.873-1.269.873-2.28 0-1.026-.298-1.765-.894-2.217-.589-.453-1.539-.679-2.849-.679h-2.298v5.929zm21.304 3.872c0 1.365-.486 2.429-1.456 3.193-.97.763-2.287 1.145-3.951 1.145-1.802 0-3.188-.237-4.159-.711v-1.739a10.75 10.75 0 002.038.636c.735.156 1.463.234 2.184.234 1.178 0 2.065-.227 2.661-.679.596-.46.894-1.096.894-1.91 0-.537-.107-.975-.322-1.315-.208-.346-.561-.665-1.06-.954-.493-.29-1.245-.619-2.257-.987-1.414-.516-2.426-1.128-3.035-1.835-.603-.707-.905-1.63-.905-2.768 0-1.195.44-2.147 1.32-2.854.881-.707 2.045-1.06 3.494-1.06 1.511 0 2.9.282 4.169.848l-.551 1.57c-1.255-.537-2.475-.806-3.66-.806-.936 0-1.667.205-2.194.615-.526.41-.79.979-.79 1.708 0 .537.097.979.291 1.326.194.339.52.654.978.944.464.283 1.171.597 2.121.944 1.594.58 2.689 1.202 3.285 1.867.603.664.905 1.527.905 2.588z" fill="#fff"/><path d="M194.682 80.702a1.74 1.74 0 001.741-1.74l.001-8.119a2.985 2.985 0 00-2.985-2.985l-76.469-.006a2.987 2.987 0 00-2.986 2.986v8.118c0 .961.779 1.74 1.74 1.741.963 0 1.742.78 1.742 1.741l-.002 16c0 .961-.779 1.741-1.741 1.741-.961 0-1.741.779-1.741 1.741l-.001 8.118a2.987 2.987 0 002.986 2.986l76.469.005a2.985 2.985 0 002.985-2.985l.001-8.119c0-.961-.78-1.741-1.741-1.741a1.74 1.74 0 01-1.741-1.742l.001-15.999c0-.961.78-1.74 1.741-1.74z" fill="url(#paint1_linear_32_4133)"/><path d="M113.982 102.487l-.001 7.552a2.986 2.986 0 002.985 2.985l76.469.005a2.985 2.985 0 002.986-2.985v-7.556h-82.439v-.001z" fill="url(#paint2_linear_32_4133)"/><path d="M117.334 90.947l5.481 5.481v-5.481h-5.481z" fill="url(#paint3_linear_32_4133)"/><path d="M139.608 68.02l5.935 5.935h-5.935V68.02z" fill="url(#paint4_linear_32_4133)"/><path d="M188.029 107.507h-64.911a1.958 1.958 0 01-1.958-1.958V75.334c0-1.081.877-1.958 1.958-1.958h64.911c1.081 0 1.957.877 1.957 1.959v30.214a1.958 1.958 0 01-1.957 1.958z" fill="url(#paint5_linear_32_4133)"/><path d="M148.231 78.629a4.016 4.016 0 00-4.635-1c-1.622.726-3.18 1.674-4.606 2.466a17.87 17.87 0 00-2.199 1.444 5.324 5.324 0 00-2.241-.492 5.33 5.33 0 00-2.343.539 17.758 17.758 0 00-2.166-1.388c-1.433-.78-3-1.713-4.628-2.422-2.274-.991-4.905.306-5.495 2.716-.423 1.728 1.499 3.439 1.481 5.158 0 0-1.925 3.886-1.429 5.831.205.805.638 1.48 1.208 1.988l16.151 16.151c.103.117.214.227.329.33a3.985 3.985 0 001.326.983c.002.001.005.003.008.003.063.03.127.058.193.083l.015.006c.062.025.125.048.189.069l.024.008c.06.02.122.038.184.056l.032.008c.059.017.119.031.179.044l.039.009c.058.012.116.023.174.032l.047.008c.056.009.112.015.169.022a.985.985 0 00.054.005c.054.006.109.009.163.012l.061.004c.053.002.105.003.158.003l.067-.001c.051-.001.102-.003.152-.006l.074-.004.146-.014.078-.009a6.101 6.101 0 00.366-.067l.083-.019c.047-.012.094-.026.14-.04.027-.007.055-.014.082-.023.05-.016.1-.034.149-.052.024-.008.048-.015.071-.024.073-.028.146-.058.219-.09 1.013-.453 2.002-.993 2.949-1.528l.563-.32c.372-.211.737-.419 1.093-.617.502-.279.951-.56 1.364-.84l.059-.041a5.323 5.323 0 003.032.943 5.328 5.328 0 003.112-1c.418.28.874.559 1.383.835l.544.3c1.099.608 2.268 1.277 3.476 1.846.202.095.404.188.608.276.073.032.146.061.219.088.023.009.046.016.07.024l.005.002.07.023c.026.008.051.018.076.025l.08.023c.046.012.092.026.138.037l.012.003.075.016.142.03.077.012.063.01.085.012.077.008.136.012.022.002.063.002c.051.003.102.004.153.005l.067-.001h.059l.098-.003a1.29 1.29 0 01.062-.004c.046-.003.092-.006.139-.011l.031-.004a3.123 3.123 0 00.215-.029l.046-.007.028-.005a.354.354 0 00.029-.005c.039-.007.078-.016.118-.025a3.264 3.264 0 00.18-.043l.033-.01.005-.001.031-.009c.062-.017.124-.037.185-.058l.022-.007a4.839 4.839 0 00.365-.147l.031-.015a4.064 4.064 0 00.522-.294l.011-.008c.179-.119.348-.254.506-.401l.004-.004a3.964 3.964 0 001.144-1.958c.477-1.949-1.483-5.818-1.483-5.818-.034-1.719 1.871-3.448 1.432-5.172a3.971 3.971 0 00-1.214-1.995l-16.481-16.481z" fill="url(#paint6_linear_32_4133)"/><path d="M113.932 89.337V82.44c0-.89.721-1.611 1.611-1.611h79.312c.889 0 1.611.72 1.611 1.61v6.898c0 .89-.721 1.61-1.611 1.61h-79.312a1.61 1.61 0 01-1.611-1.61z" fill="url(#paint7_linear_32_4133)"/><path d="M143.031 90.948h16.192l-10.12-10.12h-6.072v10.12z" fill="url(#paint8_linear_32_4133)"/><path d="M138 114.475h-6.897c-.89 0-1.611-.722-1.611-1.612V68.019c0-.89.721-1.612 1.611-1.612H138c.89 0 1.611.722 1.611 1.612v44.844c0 .89-.721 1.612-1.611 1.612z" fill="url(#paint9_linear_32_4133)"/><path d="M129.492 91.972l10.12 10.12V87.575h-10.12v4.397z" fill="url(#paint10_linear_32_4133)"/><path d="M133.246 82.405c-.887-.733-1.861-1.478-3.205-2.209-1.433-.78-3-1.712-4.629-2.422-2.273-.99-4.904.307-5.494 2.716-.423 1.729 1.499 3.44 1.481 5.159 0 0-1.925 3.886-1.429 5.83.612 2.404 3.255 3.678 5.519 2.666 1.622-.725 3.18-1.673 4.606-2.466 1.337-.743 2.304-1.497 3.184-2.238 2.186-1.841 2.171-5.216-.033-7.036z" fill="url(#paint11_linear_32_4133)"/><path d="M147.684 85.466c-.034-1.719 1.872-3.448 1.432-5.172-.612-2.404-3.255-3.677-5.519-2.665-1.621.725-3.18 1.672-4.606 2.465-1.336.744-2.304 1.498-3.183 2.238a4.583 4.583 0 00.032 7.037c.887.732 1.861 1.477 3.206 2.208 1.433.78 2.999 1.712 4.628 2.422 2.274.991 4.904-.307 5.494-2.716.477-1.949-1.484-5.817-1.484-5.817z" fill="url(#paint12_linear_32_4133)"/><path d="M133.278 89.442a4.544 4.544 0 001.418-2.127c-4.044.382-10.357 1.782-12.719 6.71a3.993 3.993 0 003.511.12c1.622-.725 3.18-1.672 4.606-2.464 1.337-.744 2.304-1.498 3.184-2.239z" fill="url(#paint13_linear_32_4133)"/><path d="M123.072 85.652c.008 1.619.221 6.07 4.685 7.346.809-.446 1.591-.903 2.338-1.318 1.337-.743 2.304-1.497 3.184-2.238a4.568 4.568 0 001.603-3.997s-2.343-1.252-3.383-1.75c-5.62-2.69-8.437-.32-8.427 1.957z" fill="url(#paint14_linear_32_4133)"/><path d="M135.84 89.37a4.547 4.547 0 01-1.439-2.114c4.047.344 10.374 1.685 12.782 6.591a3.995 3.995 0 01-3.51.153c-1.628-.71-3.196-1.643-4.628-2.422-1.345-.731-2.319-1.476-3.205-2.208z" fill="url(#paint15_linear_32_4133)"/><path d="M146.011 85.484c.007 1.618-.163 6.072-4.615 7.39-.813-.439-1.6-.888-2.351-1.296-1.344-.73-2.318-1.476-3.204-2.209a4.565 4.565 0 01-1.641-3.983s2.331-1.272 3.367-1.78c5.594-2.742 8.433-.398 8.444 1.878z" fill="url(#paint16_linear_32_4133)"/><path d="M148.467 92.752l-10.009-10.008a5.373 5.373 0 00-1.666-1.206c-.347.266-.672.531-.985.794a4.583 4.583 0 00.034 7.037c.886.732 1.861 1.477 3.205 2.208 1.432.78 3 1.713 4.628 2.422a4.017 4.017 0 004.793-1.247z" fill="url(#paint17_linear_32_4133)"/><path d="M139.895 86.395a5.349 5.349 0 11-10.697-.001 5.349 5.349 0 0110.697.001z" fill="url(#paint18_linear_32_4133)"/><path d="M141.422 96.387c0-.145.085-.27.254-.374.169-.105.35-.157.544-.157.241 0 .39.089.447.265l1.993 6.887 1.982-6.887c.055-.176.2-.265.432-.265.192 0 .374.052.547.157.171.103.258.228.258.372 0 .024-.008.06-.024.109l-2.391 7.83a.527.527 0 01-.289.322 1.131 1.131 0 01-.515.115c-.443 0-.712-.146-.809-.435l-2.417-7.83a.371.371 0 01-.012-.109z" fill="url(#paint19_linear_32_4133)"/><path d="M148.759 102.066V98.55c0-.926.245-1.607.737-2.042.491-.435 1.147-.652 1.969-.652.822 0 1.48.217 1.976.652.495.435.743 1.116.743 2.042v3.516c0 .927-.248 1.607-.743 2.042-.496.435-1.154.653-1.976.653-.822 0-1.478-.218-1.969-.653-.492-.435-.737-1.115-.737-2.042zm1.28 0c0 1.039.475 1.559 1.426 1.559.459 0 .814-.129 1.063-.387.249-.257.375-.648.375-1.172V98.55c0-.524-.125-.914-.375-1.172-.249-.258-.604-.386-1.063-.386-.951 0-1.426.52-1.426 1.558v3.516z" fill="url(#paint20_linear_32_4133)"/><path d="M155.647 102.067v-5.8c0-.137.063-.24.187-.308a.93.93 0 01.454-.103c.177 0 .328.034.453.103a.33.33 0 01.187.308v5.8c0 .523.129.914.387 1.172.257.257.62.386 1.087.386.991 0 1.486-.519 1.486-1.559v-5.8c0-.136.063-.239.188-.308a.932.932 0 01.453-.102c.177 0 .328.034.453.102a.331.331 0 01.187.309v5.799c0 .927-.252 1.607-.755 2.042-.504.436-1.174.653-2.012.653-.83 0-1.496-.217-2-.653-.503-.434-.755-1.115-.755-2.041z" fill="url(#paint21_linear_32_4133)"/><path d="M162.642 102.066V98.55c0-.926.247-1.607.743-2.042.495-.435 1.141-.652 1.939-.652.822 0 1.484.203 1.987.61.504.407.755.932.755 1.576 0 .258-.047.433-.144.526-.097.092-.262.139-.496.139-.419 0-.632-.141-.64-.423-.048-.862-.52-1.293-1.414-1.293-.967 0-1.45.52-1.45 1.56v3.515c0 1.039.492 1.559 1.474 1.559.29 0 .532-.042.725-.127a.82.82 0 00.417-.369 2.09 2.09 0 00.175-.422 2.74 2.74 0 00.073-.447c.024-.282.233-.424.628-.424.234 0 .401.047.502.14.1.092.15.267.15.525 0 .669-.253 1.213-.76 1.631-.508.419-1.173.629-1.994.629-.798 0-1.442-.218-1.933-.653-.492-.435-.737-1.115-.737-2.042z" fill="url(#paint22_linear_32_4133)"/><path d="M169.262 104.265v-7.999a.33.33 0 01.187-.308.932.932 0 01.453-.102c.177 0 .328.034.453.102a.332.332 0 01.188.308v3.335h3.008v-3.335a.33.33 0 01.187-.308.936.936 0 01.454-.102c.176 0 .328.034.452.102a.33.33 0 01.187.308v7.999c0 .129-.062.232-.187.308a.844.844 0 01-.452.115.856.856 0 01-.448-.115c-.129-.076-.193-.179-.193-.308v-3.649h-3.008v3.649c0 .129-.063.232-.188.308a.847.847 0 01-.453.115.853.853 0 01-.447-.115c-.129-.076-.193-.179-.193-.308z" fill="url(#paint23_linear_32_4133)"/><path d="M176.428 104.265v-7.987c0-.128.056-.23.169-.308a.692.692 0 01.399-.114h4.301a.35.35 0 01.314.169.696.696 0 01.109.386.719.719 0 01-.114.411.357.357 0 01-.309.169h-3.588v2.767h1.86a.37.37 0 01.309.151.596.596 0 01.114.369.57.57 0 01-.109.344.36.36 0 01-.314.151h-1.86v2.779h3.588c.129 0 .232.056.309.169a.72.72 0 01.114.411.697.697 0 01-.109.387.35.35 0 01-.314.169h-4.301a.691.691 0 01-.399-.115.354.354 0 01-.169-.308z" fill="url(#paint24_linear_32_4133)"/><path d="M182.747 104.265v-7.999a.41.41 0 01.423-.41h2.295c1.853 0 2.779.822 2.779 2.464 0 .682-.153 1.218-.459 1.607-.306.389-.721.648-1.244.776l1.691 3.185a.365.365 0 01.049.182c0 .161-.083.31-.248.448a.805.805 0 01-.525.206c-.21 0-.379-.125-.508-.375l-1.764-3.467h-1.221v3.382c0 .129-.062.232-.187.309a.845.845 0 01-.453.115.824.824 0 01-.441-.115c-.125-.076-.187-.179-.187-.308zm1.269-4.398h1.449c.999 0 1.499-.479 1.499-1.438 0-.958-.5-1.438-1.499-1.438h-1.449v2.876z" fill="url(#paint25_linear_32_4133)"/><path d="M290.864 19.073a.391.391 0 00.391-.392l.001-1.827a.672.672 0 00-.672-.672l-17.211-.001c-.371 0-.672.3-.672.672v1.827c0 .216.175.392.391.392.217 0 .392.175.392.392v3.6a.392.392 0 01-.392.392.392.392 0 00-.392.392v1.827c0 .372.301.672.672.672l17.211.002a.672.672 0 00.672-.672v-1.828a.392.392 0 00-.392-.391.392.392 0 01-.392-.392l.001-3.601c0-.217.175-.392.392-.392z" fill="url(#paint26_linear_32_4133)"/><path d="M272.7 23.976v1.7c0 .37.301.672.672.672h17.211c.371 0 .672-.3.672-.67v-1.701H272.7z" fill="url(#paint27_linear_32_4133)"/><path d="M273.455 21.379l1.234 1.233V21.38h-1.234z" fill="url(#paint28_linear_32_4133)"/><path d="M278.467 16.218l1.336 1.336h-1.336V16.22z" fill="url(#paint29_linear_32_4133)"/><path d="M289.366 25.106h-14.61a.441.441 0 01-.441-.44v-6.801a.44.44 0 01.441-.44h14.61a.44.44 0 01.44.44v6.8a.44.44 0 01-.44.44z" fill="url(#paint30_linear_32_4133)"/><path d="M280.408 18.606a.906.906 0 00-1.044-.225c-.365.163-.715.377-1.036.555a4.018 4.018 0 00-.495.325 1.203 1.203 0 00-1.032.01 3.99 3.99 0 00-.487-.312c-.323-.175-.676-.385-1.042-.545a.903.903 0 00-1.237.611c-.095.39.337.774.333 1.161 0 0-.433.875-.321 1.313.046.18.143.333.272.447l3.635 3.635a.85.85 0 00.074.075.907.907 0 00.254.199l.044.022h.002a.676.676 0 00.044.02h.003l.042.016.006.002a.637.637 0 00.041.012l.007.002a.872.872 0 00.041.01l.009.002a.889.889 0 00.039.007l.01.002.038.005.013.001.036.003h.014l.035.001h.016l.034-.001.016-.001a.921.921 0 00.033-.003l.018-.002.032-.005.018-.003.032-.007.019-.005a.722.722 0 00.05-.014l.033-.011a.185.185 0 00.016-.006l.05-.02a8.13 8.13 0 00.663-.344l.127-.072.246-.139a4.031 4.031 0 00.32-.198 1.198 1.198 0 001.383-.013c.094.063.197.126.311.188l.123.067c.247.137.51.288.782.416a5.52 5.52 0 00.186.082l.016.005h.001l.016.006.017.006.018.005.031.008h.003l.017.004a.6.6 0 00.032.007l.017.003a.43.43 0 01.014.002c.007 0 .013.002.019.003l.018.001.03.003h.005a.416.416 0 00.049.002h.05a.417.417 0 00.045-.004h.007l.011-.002a.826.826 0 00.038-.005l.01-.002.006-.001.007-.001a.517.517 0 00.027-.006l.008-.002a.5.5 0 00.032-.008l.008-.002h.001l.007-.002a.58.58 0 00.041-.013l.005-.002a.698.698 0 00.077-.03l.005-.003.008-.003h.001a.92.92 0 00.116-.066l.002-.002a.823.823 0 00.114-.09l.001-.001a.898.898 0 00.258-.441c.107-.439-.334-1.31-.334-1.31-.008-.386.421-.776.322-1.163a.89.89 0 00-.273-.45l-3.709-3.709z" fill="url(#paint31_linear_32_4133)"/><path d="M272.688 21.016v-1.552c0-.2.163-.362.363-.362h17.851c.2 0 .362.162.362.362v1.552c0 .2-.162.363-.362.363h-17.851a.363.363 0 01-.363-.363z" fill="url(#paint32_linear_32_4133)"/><path d="M279.237 21.38h3.645l-2.278-2.278h-1.367v2.277z" fill="url(#paint33_linear_32_4133)"/><path d="M278.105 26.674h-1.552a.363.363 0 01-.363-.363V16.218c0-.2.163-.362.363-.362h1.552c.201 0 .363.162.363.362v10.093c0 .2-.162.363-.363.363z" fill="url(#paint34_linear_32_4133)"/><path d="M276.19 21.61l2.278 2.277V20.62h-2.278v.99z" fill="url(#paint35_linear_32_4133)"/><path d="M277.035 19.456a4.367 4.367 0 00-.721-.497c-.323-.175-.676-.385-1.042-.545a.903.903 0 00-1.237.611c-.095.39.337.774.333 1.161 0 0-.433.875-.321 1.313a.903.903 0 001.242.6c.365-.164.716-.377 1.037-.555.3-.168.518-.337.716-.504a1.031 1.031 0 00-.007-1.584z" fill="url(#paint36_linear_32_4133)"/><path d="M280.284 20.145c-.008-.387.421-.776.322-1.164a.902.902 0 00-1.242-.6c-.365.163-.716.377-1.036.555a4.347 4.347 0 00-.717.504 1.031 1.031 0 00.007 1.583c.2.165.419.333.722.497.322.176.675.386 1.041.546a.903.903 0 001.237-.612c.107-.438-.334-1.309-.334-1.309z" fill="url(#paint37_linear_32_4133)"/><path d="M277.043 21.04c.156-.132.263-.299.319-.479-.91.086-2.331.402-2.863 1.51a.898.898 0 00.79.028c.365-.163.716-.377 1.037-.555.301-.167.519-.337.717-.504z" fill="url(#paint38_linear_32_4133)"/><path d="M274.746 20.187c.002.364.05 1.366 1.054 1.653.182-.1.359-.203.527-.296.301-.168.518-.337.716-.504.276-.232.396-.573.361-.9 0 0-.527-.281-.761-.393-1.265-.606-1.899-.072-1.897.44z" fill="url(#paint39_linear_32_4133)"/><path d="M277.619 21.024a1.025 1.025 0 01-.324-.476c.911.078 2.335.38 2.877 1.484a.9.9 0 01-.79.034c-.367-.16-.72-.37-1.042-.545a4.307 4.307 0 01-.721-.497z" fill="url(#paint40_linear_32_4133)"/><path d="M279.907 20.15c.002.364-.036 1.366-1.038 1.662-.183-.098-.36-.2-.529-.291a4.337 4.337 0 01-.722-.497 1.028 1.028 0 01-.369-.897s.525-.286.758-.4c1.259-.618 1.898-.09 1.9.422z" fill="url(#paint41_linear_32_4133)"/><path d="M280.46 21.785l-2.252-2.252a1.207 1.207 0 00-.376-.272 5.9 5.9 0 00-.221.179 1.032 1.032 0 00.007 1.584c.2.165.419.332.722.497.322.175.675.385 1.041.545a.904.904 0 001.079-.281z" fill="url(#paint42_linear_32_4133)"/><path d="M278.532 20.354a1.204 1.204 0 11-2.407 0 1.204 1.204 0 012.407 0z" fill="url(#paint43_linear_32_4133)"/><path d="M278.875 22.604c0-.033.019-.061.057-.085a.229.229 0 01.123-.035c.054 0 .087.02.1.06l.449 1.55.446-1.55c.012-.04.045-.06.097-.06a.24.24 0 01.123.035c.039.024.058.052.058.084a.108.108 0 01-.005.024l-.538 1.763a.119.119 0 01-.065.072.253.253 0 01-.116.026c-.1 0-.161-.033-.182-.098l-.544-1.762a.076.076 0 01-.003-.024z" fill="url(#paint44_linear_32_4133)"/><path d="M280.527 23.882v-.792c0-.208.056-.361.166-.46a.646.646 0 01.443-.146.65.65 0 01.445.147c.112.098.167.25.167.46v.79c0 .21-.055.362-.167.46a.65.65 0 01-.445.147.646.646 0 01-.443-.147c-.111-.098-.166-.25-.166-.46zm.288 0c0 .234.107.35.321.35.104 0 .184-.029.24-.087.056-.058.084-.145.084-.263v-.792c0-.118-.028-.206-.084-.263-.056-.059-.136-.087-.24-.087-.214 0-.321.117-.321.35v.792z" fill="url(#paint45_linear_32_4133)"/><path d="M282.077 23.882v-1.306c0-.03.014-.054.042-.069a.209.209 0 01.102-.023c.04 0 .074.008.102.023a.075.075 0 01.042.07v1.305c0 .118.029.206.087.264.058.058.14.087.245.087.223 0 .335-.117.335-.351v-1.306c0-.03.014-.054.042-.069a.21.21 0 01.102-.023.21.21 0 01.102.023.075.075 0 01.042.07v1.305c0 .208-.057.361-.17.46a.668.668 0 01-.453.146.663.663 0 01-.45-.147c-.113-.098-.17-.25-.17-.46z" fill="url(#paint46_linear_32_4133)"/><path d="M283.651 23.882v-.792c0-.208.056-.361.168-.46a.636.636 0 01.436-.146.69.69 0 01.447.137c.114.092.17.21.17.355 0 .058-.01.098-.032.118-.022.021-.059.032-.112.032-.094 0-.142-.032-.144-.096-.011-.194-.117-.29-.318-.29-.218 0-.326.116-.326.35v.792c0 .234.11.35.331.35.066 0 .12-.009.164-.028a.185.185 0 00.093-.083.461.461 0 00.056-.196c.006-.063.053-.095.141-.095.053 0 .091.01.113.031.023.021.034.06.034.119 0 .15-.057.273-.171.367a.682.682 0 01-.449.141.633.633 0 01-.435-.147c-.11-.098-.166-.25-.166-.46z" fill="url(#paint47_linear_32_4133)"/><path d="M285.142 24.377v-1.8c0-.032.014-.055.042-.07a.21.21 0 01.102-.023c.04 0 .074.007.102.023a.075.075 0 01.042.07v.75h.677v-.75c0-.032.014-.055.042-.07a.21.21 0 01.102-.023c.04 0 .074.007.102.023a.075.075 0 01.042.07v1.8c0 .029-.014.052-.042.069a.19.19 0 01-.102.026.188.188 0 01-.1-.026c-.03-.017-.044-.04-.044-.07v-.82h-.677v.82c0 .03-.014.053-.042.07a.19.19 0 01-.102.026.194.194 0 01-.101-.026c-.029-.017-.043-.04-.043-.07z" fill="url(#paint48_linear_32_4133)"/><path d="M286.754 24.377v-1.798a.08.08 0 01.038-.07.154.154 0 01.09-.025h.968a.08.08 0 01.071.038.16.16 0 01.024.087.162.162 0 01-.026.092.079.079 0 01-.069.038h-.808v.623h.419c.029 0 .052.012.069.034.018.023.026.05.026.083a.131.131 0 01-.024.078.083.083 0 01-.071.034h-.419v.625h.808a.08.08 0 01.069.038.163.163 0 01.026.093.16.16 0 01-.024.087.08.08 0 01-.071.038h-.968a.154.154 0 01-.09-.026.08.08 0 01-.038-.07z" fill="url(#paint49_linear_32_4133)"/><path d="M288.177 24.377v-1.8a.092.092 0 01.095-.092h.517c.417-.001.625.184.625.554a.57.57 0 01-.103.361.497.497 0 01-.28.175l.38.717a.075.075 0 01.011.04c0 .037-.018.07-.055.102a.185.185 0 01-.119.046c-.047 0-.085-.028-.114-.085l-.397-.78h-.275v.761c0 .03-.014.053-.042.07a.19.19 0 01-.102.026.185.185 0 01-.099-.026c-.028-.017-.042-.04-.042-.07zm.285-.99h.327c.224 0 .337-.108.337-.324 0-.216-.113-.324-.337-.324h-.327v.648z" fill="url(#paint50_linear_32_4133)"/><defs><linearGradient id="paint0_linear_32_4133" x1="169.476" y1="-33.358" x2="177.869" y2="345.937" gradientUnits="userSpaceOnUse"><stop stop-color="#FD749B"/><stop offset="1" stop-color="#281AC8"/></linearGradient><linearGradient id="paint1_linear_32_4133" x1="133.822" y1="69.06" x2="189.62" y2="124.858" gradientUnits="userSpaceOnUse"><stop stop-color="#FFD459"/><stop offset=".23" stop-color="#FFD355"/><stop offset=".436" stop-color="#FFCF4A"/><stop offset=".634" stop-color="#FFC838"/><stop offset=".825" stop-color="#FFBF1F"/><stop offset="1" stop-color="#FFB400"/></linearGradient><linearGradient id="paint2_linear_32_4133" x1="155.202" y1="107.147" x2="155.202" y2="115.431" gradientUnits="userSpaceOnUse"><stop stop-color="#E58200" stop-opacity="0"/><stop offset=".04" stop-color="#E27F04" stop-opacity=".039"/><stop offset=".467" stop-color="#C15D2F" stop-opacity=".467"/><stop offset=".802" stop-color="#AD4949" stop-opacity=".8"/><stop offset="1" stop-color="#A64153"/></linearGradient><linearGradient id="paint3_linear_32_4133" x1="121.608" y1="94.451" x2="119.426" y2="89.465" gradientUnits="userSpaceOnUse"><stop stop-color="#E58200" stop-opacity="0"/><stop offset=".04" stop-color="#E27F04" stop-opacity=".039"/><stop offset=".467" stop-color="#C15D2F" stop-opacity=".467"/><stop offset=".802" stop-color="#AD4949" stop-opacity=".8"/><stop offset="1" stop-color="#A64153"/></linearGradient><linearGradient id="paint4_linear_32_4133" x1="143.739" y1="73.906" x2="131.089" y2="64.966" gradientUnits="userSpaceOnUse"><stop stop-color="#E58200" stop-opacity="0"/><stop offset=".04" stop-color="#E27F04" stop-opacity=".039"/><stop offset=".467" stop-color="#C15D2F" stop-opacity=".467"/><stop offset=".802" stop-color="#AD4949" stop-opacity=".8"/><stop offset="1" stop-color="#A64153"/></linearGradient><linearGradient id="paint5_linear_32_4133" x1="138.234" y1="73.1" x2="183.484" y2="118.357" gradientUnits="userSpaceOnUse"><stop stop-color="#FFFCF8"/><stop offset=".188" stop-color="#FAF8F6"/><stop offset=".404" stop-color="#ECEEF2"/><stop offset=".635" stop-color="#D5DCEA"/><stop offset=".875" stop-color="#B5C4DF"/><stop offset="1" stop-color="#A1B5D8"/></linearGradient><linearGradient id="paint6_linear_32_4133" x1="146.366" y1="102.107" x2="132.198" y2="69.723" gradientUnits="userSpaceOnUse"><stop stop-color="#A1B5D8" stop-opacity="0"/><stop offset=".034" stop-color="#9FB3D5" stop-opacity=".035"/><stop offset=".452" stop-color="#8898AF" stop-opacity=".451"/><stop offset=".788" stop-color="#798898" stop-opacity=".788"/><stop offset="1" stop-color="#748290"/></linearGradient><linearGradient id="paint7_linear_32_4133" x1="155.199" y1="83.864" x2="155.199" y2="94.827" gradientUnits="userSpaceOnUse"><stop stop-color="#FF6E3A"/><stop offset=".16" stop-color="#FF6440"/><stop offset=".427" stop-color="#FF4B52"/><stop offset=".766" stop-color="#FF216E"/><stop offset="1" stop-color="#FF0084"/></linearGradient><linearGradient id="paint8_linear_32_4133" x1="152.814" y1="92.635" x2="140.951" y2="80.772" gradientUnits="userSpaceOnUse"><stop stop-color="#E58200" stop-opacity="0"/><stop offset=".438" stop-color="#C4602C" stop-opacity=".439"/><stop offset=".795" stop-color="#AE4948" stop-opacity=".796"/><stop offset="1" stop-color="#A64153"/></linearGradient><linearGradient id="paint9_linear_32_4133" x1="134.552" y1="87.652" x2="134.552" y2="125.426" gradientUnits="userSpaceOnUse"><stop stop-color="#FF6E3A"/><stop offset=".16" stop-color="#FF6440"/><stop offset=".427" stop-color="#FF4B52"/><stop offset=".766" stop-color="#FF216E"/><stop offset="1" stop-color="#FF0084"/></linearGradient><linearGradient id="paint10_linear_32_4133" x1="141.03" y1="96.251" x2="129.922" y2="85.144" gradientUnits="userSpaceOnUse"><stop stop-color="#E58200" stop-opacity="0"/><stop offset=".438" stop-color="#C4602C" stop-opacity=".439"/><stop offset=".795" stop-color="#AE4948" stop-opacity=".796"/><stop offset="1" stop-color="#A64153"/></linearGradient><linearGradient id="paint11_linear_32_4133" x1="129.365" y1="95.689" x2="124.855" y2="78.638" gradientUnits="userSpaceOnUse"><stop stop-color="#FF0084"/><stop offset=".234" stop-color="#FF216E"/><stop offset=".573" stop-color="#FF4B52"/><stop offset=".84" stop-color="#FF6440"/><stop offset="1" stop-color="#FF6E3A"/></linearGradient><linearGradient id="paint12_linear_32_4133" x1="141.098" y1="96.499" x2="142.638" y2="75.598" gradientUnits="userSpaceOnUse"><stop stop-color="#FF0084"/><stop offset=".234" stop-color="#FF216E"/><stop offset=".573" stop-color="#FF4B52"/><stop offset=".84" stop-color="#FF6440"/><stop offset="1" stop-color="#FF6E3A"/></linearGradient><linearGradient id="paint13_linear_32_4133" x1="128.421" y1="92.661" x2="128.103" y2="86.193" gradientUnits="userSpaceOnUse"><stop stop-color="#E58200" stop-opacity="0"/><stop offset=".438" stop-color="#C4602C" stop-opacity=".439"/><stop offset=".795" stop-color="#AE4948" stop-opacity=".796"/><stop offset="1" stop-color="#A64153"/></linearGradient><linearGradient id="paint14_linear_32_4133" x1="126.906" y1="87.861" x2="137.729" y2="79.119" gradientUnits="userSpaceOnUse"><stop stop-color="#E58200" stop-opacity="0"/><stop offset=".438" stop-color="#C4602C" stop-opacity=".439"/><stop offset=".795" stop-color="#AE4948" stop-opacity=".796"/><stop offset="1" stop-color="#A64153"/></linearGradient><linearGradient id="paint15_linear_32_4133" x1="140.697" y1="92.543" x2="140.954" y2="86.07" gradientUnits="userSpaceOnUse"><stop stop-color="#E58200" stop-opacity="0"/><stop offset=".438" stop-color="#C4602C" stop-opacity=".439"/><stop offset=".795" stop-color="#AE4948" stop-opacity=".796"/><stop offset="1" stop-color="#A64153"/></linearGradient><linearGradient id="paint16_linear_32_4133" x1="142.169" y1="87.728" x2="131.263" y2="79.087" gradientUnits="userSpaceOnUse"><stop stop-color="#E58200" stop-opacity="0"/><stop offset=".438" stop-color="#C4602C" stop-opacity=".439"/><stop offset=".795" stop-color="#AE4948" stop-opacity=".796"/><stop offset="1" stop-color="#A64153"/></linearGradient><linearGradient id="paint17_linear_32_4133" x1="143.236" y1="92.156" x2="134.905" y2="83.824" gradientUnits="userSpaceOnUse"><stop stop-color="#E58200" stop-opacity="0"/><stop offset=".438" stop-color="#C4602C" stop-opacity=".439"/><stop offset=".795" stop-color="#AE4948" stop-opacity=".796"/><stop offset="1" stop-color="#A64153"/></linearGradient><linearGradient id="paint18_linear_32_4133" x1="131.454" y1="83.303" x2="139.114" y2="90.963" gradientUnits="userSpaceOnUse"><stop stop-color="#FF6E3A"/><stop offset=".16" stop-color="#FF6440"/><stop offset=".427" stop-color="#FF4B52"/><stop offset=".766" stop-color="#FF216E"/><stop offset="1" stop-color="#FF0084"/></linearGradient><linearGradient id="paint19_linear_32_4133" x1="144.651" y1="98.497" x2="144.651" y2="106.727" gradientUnits="userSpaceOnUse"><stop stop-color="#45425A"/><stop offset="1" stop-color="#2D3251"/></linearGradient><linearGradient id="paint20_linear_32_4133" x1="151.471" y1="98.497" x2="151.471" y2="106.727" gradientUnits="userSpaceOnUse"><stop stop-color="#45425A"/><stop offset="1" stop-color="#2D3251"/></linearGradient><linearGradient id="paint21_linear_32_4133" x1="158.408" y1="98.498" x2="158.408" y2="106.728" gradientUnits="userSpaceOnUse"><stop stop-color="#45425A"/><stop offset="1" stop-color="#2D3251"/></linearGradient><linearGradient id="paint22_linear_32_4133" x1="165.354" y1="98.497" x2="165.354" y2="106.727" gradientUnits="userSpaceOnUse"><stop stop-color="#45425A"/><stop offset="1" stop-color="#2D3251"/></linearGradient><linearGradient id="paint23_linear_32_4133" x1="172.047" y1="98.497" x2="172.047" y2="106.727" gradientUnits="userSpaceOnUse"><stop stop-color="#45425A"/><stop offset="1" stop-color="#2D3251"/></linearGradient><linearGradient id="paint24_linear_32_4133" x1="179.074" y1="98.497" x2="179.074" y2="106.727" gradientUnits="userSpaceOnUse"><stop stop-color="#45425A"/><stop offset="1" stop-color="#2D3251"/></linearGradient><linearGradient id="paint25_linear_32_4133" x1="185.514" y1="98.497" x2="185.514" y2="106.727" gradientUnits="userSpaceOnUse"><stop stop-color="#45425A"/><stop offset="1" stop-color="#2D3251"/></linearGradient><linearGradient id="paint26_linear_32_4133" x1="277.166" y1="16.453" x2="289.724" y2="29.011" gradientUnits="userSpaceOnUse"><stop stop-color="#FFD459"/><stop offset=".23" stop-color="#FFD355"/><stop offset=".436" stop-color="#FFCF4A"/><stop offset=".634" stop-color="#FFC838"/><stop offset=".825" stop-color="#FFBF1F"/><stop offset="1" stop-color="#FFB400"/></linearGradient><linearGradient id="paint27_linear_32_4133" x1="281.978" y1="25.025" x2="281.978" y2="26.89" gradientUnits="userSpaceOnUse"><stop stop-color="#E58200" stop-opacity="0"/><stop offset=".04" stop-color="#E27F04" stop-opacity=".039"/><stop offset=".467" stop-color="#C15D2F" stop-opacity=".467"/><stop offset=".802" stop-color="#AD4949" stop-opacity=".8"/><stop offset="1" stop-color="#A64153"/></linearGradient><linearGradient id="paint28_linear_32_4133" x1="274.417" y1="22.167" x2="273.926" y2="21.045" gradientUnits="userSpaceOnUse"><stop stop-color="#E58200" stop-opacity="0"/><stop offset=".04" stop-color="#E27F04" stop-opacity=".039"/><stop offset=".467" stop-color="#C15D2F" stop-opacity=".467"/><stop offset=".802" stop-color="#AD4949" stop-opacity=".8"/><stop offset="1" stop-color="#A64153"/></linearGradient><linearGradient id="paint29_linear_32_4133" x1="279.396" y1="17.543" x2="276.549" y2="15.531" gradientUnits="userSpaceOnUse"><stop stop-color="#E58200" stop-opacity="0"/><stop offset=".04" stop-color="#E27F04" stop-opacity=".039"/><stop offset=".467" stop-color="#C15D2F" stop-opacity=".467"/><stop offset=".802" stop-color="#AD4949" stop-opacity=".8"/><stop offset="1" stop-color="#A64153"/></linearGradient><linearGradient id="paint30_linear_32_4133" x1="278.158" y1="17.362" x2="288.343" y2="27.548" gradientUnits="userSpaceOnUse"><stop stop-color="#FFFCF8"/><stop offset=".188" stop-color="#FAF8F6"/><stop offset=".404" stop-color="#ECEEF2"/><stop offset=".635" stop-color="#D5DCEA"/><stop offset=".875" stop-color="#B5C4DF"/><stop offset="1" stop-color="#A1B5D8"/></linearGradient><linearGradient id="paint31_linear_32_4133" x1="279.988" y1="23.89" x2="276.799" y2="16.602" gradientUnits="userSpaceOnUse"><stop stop-color="#A1B5D8" stop-opacity="0"/><stop offset=".034" stop-color="#9FB3D5" stop-opacity=".035"/><stop offset=".452" stop-color="#8898AF" stop-opacity=".451"/><stop offset=".788" stop-color="#798898" stop-opacity=".788"/><stop offset="1" stop-color="#748290"/></linearGradient><linearGradient id="paint32_linear_32_4133" x1="281.976" y1="19.785" x2="281.976" y2="22.252" gradientUnits="userSpaceOnUse"><stop stop-color="#FF6E3A"/><stop offset=".16" stop-color="#FF6440"/><stop offset=".427" stop-color="#FF4B52"/><stop offset=".766" stop-color="#FF216E"/><stop offset="1" stop-color="#FF0084"/></linearGradient><linearGradient id="paint33_linear_32_4133" x1="281.439" y1="21.759" x2="278.769" y2="19.089" gradientUnits="userSpaceOnUse"><stop stop-color="#E58200" stop-opacity="0"/><stop offset=".438" stop-color="#C4602C" stop-opacity=".439"/><stop offset=".795" stop-color="#AE4948" stop-opacity=".796"/><stop offset="1" stop-color="#A64153"/></linearGradient><linearGradient id="paint34_linear_32_4133" x1="277.329" y1="20.637" x2="277.329" y2="29.139" gradientUnits="userSpaceOnUse"><stop stop-color="#FF6E3A"/><stop offset=".16" stop-color="#FF6440"/><stop offset=".427" stop-color="#FF4B52"/><stop offset=".766" stop-color="#FF216E"/><stop offset="1" stop-color="#FF0084"/></linearGradient><linearGradient id="paint35_linear_32_4133" x1="278.787" y1="22.572" x2="276.287" y2="20.073" gradientUnits="userSpaceOnUse"><stop stop-color="#E58200" stop-opacity="0"/><stop offset=".438" stop-color="#C4602C" stop-opacity=".439"/><stop offset=".795" stop-color="#AE4948" stop-opacity=".796"/><stop offset="1" stop-color="#A64153"/></linearGradient><linearGradient id="paint36_linear_32_4133" x1="276.161" y1="22.446" x2="275.146" y2="18.608" gradientUnits="userSpaceOnUse"><stop stop-color="#FF0084"/><stop offset=".234" stop-color="#FF216E"/><stop offset=".573" stop-color="#FF4B52"/><stop offset=".84" stop-color="#FF6440"/><stop offset="1" stop-color="#FF6E3A"/></linearGradient><linearGradient id="paint37_linear_32_4133" x1="278.802" y1="22.628" x2="279.148" y2="17.924" gradientUnits="userSpaceOnUse"><stop stop-color="#FF0084"/><stop offset=".234" stop-color="#FF216E"/><stop offset=".573" stop-color="#FF4B52"/><stop offset=".84" stop-color="#FF6440"/><stop offset="1" stop-color="#FF6E3A"/></linearGradient><linearGradient id="paint38_linear_32_4133" x1="275.949" y1="21.765" x2="275.878" y2="20.309" gradientUnits="userSpaceOnUse"><stop stop-color="#E58200" stop-opacity="0"/><stop offset=".438" stop-color="#C4602C" stop-opacity=".439"/><stop offset=".795" stop-color="#AE4948" stop-opacity=".796"/><stop offset="1" stop-color="#A64153"/></linearGradient><linearGradient id="paint39_linear_32_4133" x1="275.609" y1="20.684" x2="278.045" y2="18.717" gradientUnits="userSpaceOnUse"><stop stop-color="#E58200" stop-opacity="0"/><stop offset=".438" stop-color="#C4602C" stop-opacity=".439"/><stop offset=".795" stop-color="#AE4948" stop-opacity=".796"/><stop offset="1" stop-color="#A64153"/></linearGradient><linearGradient id="paint40_linear_32_4133" x1="278.712" y1="21.738" x2="278.77" y2="20.281" gradientUnits="userSpaceOnUse"><stop stop-color="#E58200" stop-opacity="0"/><stop offset=".438" stop-color="#C4602C" stop-opacity=".439"/><stop offset=".795" stop-color="#AE4948" stop-opacity=".796"/><stop offset="1" stop-color="#A64153"/></linearGradient><linearGradient id="paint41_linear_32_4133" x1="279.043" y1="20.654" x2="276.588" y2="18.709" gradientUnits="userSpaceOnUse"><stop stop-color="#E58200" stop-opacity="0"/><stop offset=".438" stop-color="#C4602C" stop-opacity=".439"/><stop offset=".795" stop-color="#AE4948" stop-opacity=".796"/><stop offset="1" stop-color="#A64153"/></linearGradient><linearGradient id="paint42_linear_32_4133" x1="279.283" y1="21.651" x2="277.408" y2="19.776" gradientUnits="userSpaceOnUse"><stop stop-color="#E58200" stop-opacity="0"/><stop offset=".438" stop-color="#C4602C" stop-opacity=".439"/><stop offset=".795" stop-color="#AE4948" stop-opacity=".796"/><stop offset="1" stop-color="#A64153"/></linearGradient><linearGradient id="paint43_linear_32_4133" x1="276.633" y1="19.658" x2="278.357" y2="21.382" gradientUnits="userSpaceOnUse"><stop stop-color="#FF6E3A"/><stop offset=".16" stop-color="#FF6440"/><stop offset=".427" stop-color="#FF4B52"/><stop offset=".766" stop-color="#FF216E"/><stop offset="1" stop-color="#FF0084"/></linearGradient><linearGradient id="paint44_linear_32_4133" x1="279.602" y1="23.078" x2="279.602" y2="24.931" gradientUnits="userSpaceOnUse"><stop stop-color="#45425A"/><stop offset="1" stop-color="#2D3251"/></linearGradient><linearGradient id="paint45_linear_32_4133" x1="281.138" y1="23.078" x2="281.138" y2="24.931" gradientUnits="userSpaceOnUse"><stop stop-color="#45425A"/><stop offset="1" stop-color="#2D3251"/></linearGradient><linearGradient id="paint46_linear_32_4133" x1="282.699" y1="23.078" x2="282.699" y2="24.931" gradientUnits="userSpaceOnUse"><stop stop-color="#45425A"/><stop offset="1" stop-color="#2D3251"/></linearGradient><linearGradient id="paint47_linear_32_4133" x1="284.262" y1="23.078" x2="284.262" y2="24.931" gradientUnits="userSpaceOnUse"><stop stop-color="#45425A"/><stop offset="1" stop-color="#2D3251"/></linearGradient><linearGradient id="paint48_linear_32_4133" x1="285.768" y1="23.078" x2="285.768" y2="24.931" gradientUnits="userSpaceOnUse"><stop stop-color="#45425A"/><stop offset="1" stop-color="#2D3251"/></linearGradient><linearGradient id="paint49_linear_32_4133" x1="287.35" y1="23.078" x2="287.35" y2="24.931" gradientUnits="userSpaceOnUse"><stop stop-color="#45425A"/><stop offset="1" stop-color="#2D3251"/></linearGradient><linearGradient id="paint50_linear_32_4133" x1="288.799" y1="23.078" x2="288.799" y2="24.931" gradientUnits="userSpaceOnUse"><stop stop-color="#45425A"/><stop offset="1" stop-color="#2D3251"/></linearGradient></defs></svg>