<svg width="309" height="214" fill="none" xmlns="http://www.w3.org/2000/svg"><path d="M.363 19.955C.363 8.934 9.297 0 20.318 0h268.091c11.02 0 19.954 8.934 19.954 19.955v174.09c0 11.021-8.934 19.955-19.954 19.955H20.318C9.298 214 .363 205.066.363 194.045V19.955z" fill="#000"/><path fill-rule="evenodd" clip-rule="evenodd" d="M153.775 123.23c17.866 0 32.348-14.482 32.348-32.348s-14.482-32.348-32.348-32.348c-17.865 0-32.348 14.482-32.348 32.348 0 2.183.216 4.316.628 6.378l18.854.549a10.514 10.514 0 016.028-5.1l.201-9.106-.06-.16c-.041-.107-.082-.214-.115-.324-1.912-6.25 1.625-12.871 7.9-14.79 6.273-1.92 12.91 1.59 14.822 7.84 1.515 4.95-.397 10.124-4.37 13.02l-5.645 8.842c.241.494.459 1.004.624 1.545 1.695 5.539-1.439 11.408-6.997 13.108a10.518 10.518 0 01-12.203-4.81l-15.118-.44c5.645 9.46 15.982 15.796 27.799 15.796zm6.451-37.221c3.482-1.065 5.444-4.742 4.383-8.21-1.061-3.469-4.744-5.418-8.226-4.353-3.483 1.066-5.445 4.742-4.384 8.21 1.061 3.469 4.742 5.42 8.227 4.353zm.758 2.462c-4.873 1.49-10.027-1.236-11.512-6.09-1.485-4.856 1.261-10 6.134-11.49 4.872-1.49 10.029 1.235 11.514 6.091 1.485 4.855-1.264 9.999-6.136 11.49zm-14.103 8.83c3.709-1.134 7.634.943 8.764 4.638 1.13 3.695-.96 7.612-4.67 8.746a7.022 7.022 0 01-7.863-2.754l4.464.131c2.767.541 5.46-1.255 6.009-4.02a5.086 5.086 0 00-4.018-5.983l-4.142-.12a7.05 7.05 0 011.456-.637zm139.437-74.686a6.23 6.23 0 006.23-6.23 6.23 6.23 0 10-12.34 1.228l3.63.106c.236-.45.642-.811 1.161-.983l.038-1.753-.011-.031a2.283 2.283 0 011.499-2.911 2.284 2.284 0 012.855 1.51 2.278 2.278 0 01-.842 2.508l-1.087 1.703c.047.095.089.193.12.297a2.023 2.023 0 01-1.347 2.525 2.026 2.026 0 01-2.351-.927l-2.91-.084a6.227 6.227 0 005.355 3.042zm1.24-7.169a1.267 1.267 0 00.844-1.581 1.267 1.267 0 00-1.584-.839 1.267 1.267 0 00-.844 1.582 1.267 1.267 0 001.584.838zm.146.474a1.774 1.774 0 01-2.217-1.173 1.774 1.774 0 011.181-2.213 1.774 1.774 0 012.218 1.173 1.774 1.774 0 01-1.182 2.213zm-2.716 1.701a1.35 1.35 0 011.688.893 1.35 1.35 0 01-.9 1.685 1.353 1.353 0 01-1.514-.53l.86.025a.986.986 0 001.157-.775.98.98 0 00-.774-1.152l-.798-.023c.088-.05.181-.092.281-.123z" fill="#fff"/><path d="M86.81 168.95c5.923 0 8.796-2.94 8.796-6.38 0-7.556-12.055-4.939-12.055-8.732 0-1.293 1.096-2.352 3.94-2.352 1.836 0 3.82.53 5.746 1.617l1.48-3.616c-1.924-1.205-4.59-1.822-7.197-1.822-5.894 0-8.737 2.91-8.737 6.409 0 7.643 12.055 4.997 12.055 8.849 0 1.264-1.155 2.205-3.999 2.205-2.488 0-5.094-.882-6.842-2.147l-1.629 3.587c1.837 1.411 5.154 2.382 8.442 2.382zm22.56-.353h4.798v-16.699h6.634v-3.881h-18.067v3.881h6.635v16.699zm25.262-3.822v-4.763h9.626v-3.704h-9.626v-4.469h10.899v-3.822h-15.668v20.58h16.054v-3.822h-11.285zm37.072 3.822h5.035l-9.27-20.58h-4.739l-9.242 20.58h4.917l1.837-4.41h9.626l1.836 4.41zm-9.922-8.026l3.287-7.879 3.288 7.879h-6.575zm46.957 8.026l-.06-20.58h-3.939l-7.642 12.789-7.76-12.789h-3.969v20.58h4.502v-12.083l6.072 9.907h2.162l6.102-10.172.03 12.348h4.502z" fill="#fff"/><path fill-rule="evenodd" clip-rule="evenodd" d="M230.954 153.124a4.397 4.397 0 11-8.794 0 4.397 4.397 0 018.794 0zm-4.397 3.466a3.465 3.465 0 100-6.93 3.465 3.465 0 000 6.93z" fill="#fff"/><path d="M226.571 153.514h-.959v1.65h-.541v-4.08h1.351c.46 0 .813.104 1.06.314.248.209.372.513.372.913 0 .254-.069.476-.207.665a1.227 1.227 0 01-.572.423l.959 1.732v.033h-.578l-.885-1.65zm-.959-.44h.827c.267 0 .479-.069.636-.208a.697.697 0 00.238-.555c0-.252-.075-.445-.227-.58-.149-.134-.366-.203-.65-.204h-.824v1.547z" fill="#fff"/></svg>