<svg width="41" height="33" fill="none" xmlns="http://www.w3.org/2000/svg"><path d="M26.25 30.604h9.273c1.997 0 3.567-1.807 3.567-3.915s-1.57-3.916-3.567-3.916h-2.14c2.854-6.475 1.427-20.78-11.412-20.78-8.559 0-12.838 5.27-12.838 15.962H7.706C4.568 17.955 2 20.815 2 24.279s2.568 6.325 5.706 6.325h18.545z" stroke="url(#paint0_linear_105_9)" stroke-width="3" stroke-linecap="round" stroke-linejoin="round"/><path d="M24.331 15.536a3.22 3.22 0 00.08-2.26c-.455-1.364-1.734-2.216-3.106-2.217l-.16-.478h0a.778.778 0 00-.986-.488.779.779 0 00-.495.983l.104.313-.13.043-.104-.312s0 0 0 0a.779.779 0 00-.987-.489.779.779 0 00-.495.984l.104.312-.283.095v-.001l-.475.158-1.163.389a.779.779 0 00-.495.984.779.779 0 00.987.489l.326-.11 2.834 8.484-.326.108a.78.78 0 00-.495.984.779.779 0 00.987.49l1.92-.642.105.31a.779.779 0 00.987.49.78.78 0 00.495-.984l-.104-.312.13-.043.104.311a.779.779 0 00.987.49.779.779 0 00.494-.985l-.106-.318c1.74-.7 2.675-2.626 2.077-4.417a3.53 3.53 0 00-2.811-2.361zm.032 5.383l-2.994 1-1.258-3.766 2.193-.733a.376.376 0 00.045-.016l.755-.252a2.038 2.038 0 011.55.1h0c.483.235.838.639 1.006 1.14a1.947 1.947 0 01-.118 1.517h0a2.036 2.036 0 01-1.18 1.01zm-2.516-4.984l-2.228.745-1.084-3.242 2.194-.733c.446-.15.92-.119 1.336.085h0c.416.202.72.55.865.982.144.431.11.892-.101 1.304h0a1.752 1.752 0 01-.982.86z" fill="url(#paint1_linear_105_9)" stroke="url(#paint2_linear_105_9)"/><defs><linearGradient id="paint0_linear_105_9" x1="22.399" y1="-2.512" x2="23.645" y2="48.195" gradientUnits="userSpaceOnUse"><stop stop-color="#FD749B"/><stop offset="1" stop-color="#281AC8"/></linearGradient><linearGradient id="paint1_linear_105_9" x1="19.517" y1="8.634" x2="28.061" y2="30.505" gradientUnits="userSpaceOnUse"><stop stop-color="#FD749B"/><stop offset="1" stop-color="#281AC8"/></linearGradient><linearGradient id="paint2_linear_105_9" x1="19.517" y1="8.634" x2="28.061" y2="30.505" gradientUnits="userSpaceOnUse"><stop stop-color="#FD749B"/><stop offset="1" stop-color="#281AC8"/></linearGradient></defs></svg>