<?xml version="1.0" encoding="utf-8"?><svg viewBox="0 0 70 40" xmlns="http://www.w3.org/2000/svg" xmlns:xlink="http://www.w3.org/1999/xlink"><style>:root>svg{display:none}:root>svg:target{display:block}</style><svg fill="none" viewBox="0 0 27 27" id="bank" xmlns="http://www.w3.org/2000/svg"><path d="M25.762 24.54H1.227a1.227 1.227 0 100 2.454h24.534a1.227 1.227 0 100-2.455z" fill="url(#apaint0_linear_41_64)"/><path d="M2.76 21.35a1.227 1.227 0 100 2.454h21.468a1.227 1.227 0 000-2.454h-.306V10.308h.306a.612.612 0 100-1.225H2.76a.613.613 0 100 1.226h.307v11.04H2.76zm18.707-11.042V21.35h-3.68v-11.04h3.68zm-6.134 0V21.35h-3.68v-11.04h3.68zm-9.813 0H9.2V21.35H5.52v-11.04z" fill="url(#apaint1_linear_41_64)"/><path d="M1.227 7.98h24.546a1.226 1.226 0 00.398-2.389L13.998.114a1.23 1.23 0 00-1.006 0L.724 5.634a1.226 1.226 0 00.503 2.345z" fill="url(#apaint2_linear_41_64)"/><defs><linearGradient id="apaint0_linear_41_64" x1="14.843" y1="24.153" x2="14.856" y2="28.505" gradientUnits="userSpaceOnUse"><stop stop-color="#FD749B"/><stop offset="1" stop-color="#281AC8"/></linearGradient><linearGradient id="apaint1_linear_41_64" x1="14.69" y1="6.765" x2="15.201" y2="32.861" gradientUnits="userSpaceOnUse"><stop stop-color="#FD749B"/><stop offset="1" stop-color="#281AC8"/></linearGradient><linearGradient id="apaint2_linear_41_64" x1="14.85" y1="-1.249" x2="14.983" y2="12.888" gradientUnits="userSpaceOnUse"><stop stop-color="#FD749B"/><stop offset="1" stop-color="#281AC8"/></linearGradient></defs></svg><svg fill="none" viewBox="0 0 27 28" id="btc" xmlns="http://www.w3.org/2000/svg"><path d="M13.51 0C6.054-.007.006 6.257 0 13.99-.006 21.72 6.033 27.992 13.49 28c7.455-.007 13.498-6.269 13.51-14C27 6.272 20.963.006 13.51 0zm-.02 25.67C7.275 25.67 2.236 20.445 2.236 14S7.275 2.33 13.49 2.33c6.213.006 11.247 5.227 11.253 11.67 0 6.445-5.038 11.67-11.253 11.67z" fill="url(#bpaint0_linear_41_55)"/><path d="M17.136 13.317c.903-.527 1.391-1.584 1.223-2.644-.21-1.636-2.09-2.254-3.574-2.384V5.83h-1.463v2.439h-.982V5.83h-1.463v2.438H7.931v1.571h1.097c.49 0 .731.152.731.563v6.751c0 .564-.271.737-.564.737H8.077v1.604h2.842v2.492h1.473v-2.492h.982v2.492h1.432v-2.492h.314c3.009 0 4.012-1.528 4.012-3.608-.024-1.227-.844-2.283-1.996-2.569zm-4.796-3.38h1.045c.731 0 2.173.13 2.173 1.365.05.806-.513 1.513-1.285 1.614H12.34v-2.98zm1.62 7.801v-.01h-1.62v-3.251h1.88c.44 0 2.09.151 2.09 1.365s-.783 1.896-2.35 1.896z" fill="url(#bpaint1_linear_41_55)"/><defs><linearGradient id="bpaint0_linear_41_55" x1="14.85" y1="-4.408" x2="16.488" y2="45.19" gradientUnits="userSpaceOnUse"><stop stop-color="#FD749B"/><stop offset="1" stop-color="#281AC8"/></linearGradient><linearGradient id="bpaint1_linear_41_55" x1="14.091" y1="3.287" x2="15.405" y2="31.876" gradientUnits="userSpaceOnUse"><stop stop-color="#FD749B"/><stop offset="1" stop-color="#281AC8"/></linearGradient></defs></svg><svg fill="none" viewBox="0 0 32 33" id="customer-review" xmlns="http://www.w3.org/2000/svg"><g clip-path="url(#cclip0_32_3401)"><path d="M13.308 18.203c0 1.536 1.216 2.786 2.712 2.786 1.495 0 2.712-1.25 2.712-2.786 0-1.535-1.217-2.785-2.712-2.785s-2.712 1.25-2.712 2.785z" fill="url(#cpaint0_linear_32_3401)"/><path d="M16.02 22.846c-2.991 0-5.424 2.498-5.424 5.57v3.775h10.848v-3.775c0-3.072-2.433-5.57-5.424-5.57z" fill="url(#cpaint1_linear_32_3401)"/><path d="M8.788 20.06c0-1.535-1.216-2.785-2.712-2.785-1.495 0-2.712 1.25-2.712 2.785 0 1.536 1.217 2.785 2.712 2.785 1.496 0 2.712-1.249 2.712-2.785z" fill="url(#cpaint2_linear_32_3401)"/><path d="M28.675 20.06c0-1.535-1.216-2.785-2.711-2.785-1.496 0-2.712 1.25-2.712 2.785 0 1.536 1.216 2.785 2.712 2.785 1.495 0 2.712-1.249 2.712-2.785z" fill="url(#cpaint3_linear_32_3401)"/><path d="M5.172.502l-1.375 3.33-3.205.464 2.312 2.255-.532 3.297 2.8-1.503 2.8 1.503-.531-3.297 2.251-2.255-3.11-.464-1.41-3.33z" fill="url(#cpaint4_linear_32_3401)"/><path d="M17.429 3.832l-1.41-3.33-1.374 3.33-3.145.464 2.251 2.255-.531 3.297 2.8-1.503 2.8 1.503-.532-3.297 2.252-2.255-3.111-.464z" fill="url(#cpaint5_linear_32_3401)"/><path d="M26.867.502l-1.375 3.33-3.144.464 2.25 2.255-.53 3.297 2.8-1.503 2.8 1.503-.532-3.297 2.312-2.255-3.172-.464-1.409-3.33z" fill="url(#cpaint6_linear_32_3401)"/><path d="M25.964 24.702a5.286 5.286 0 00-3.2 1.093c.302.818.488 1.695.488 2.62v3.776h8.196v-1.918c0-3.077-2.489-5.57-5.484-5.57z" fill="url(#cpaint7_linear_32_3401)"/><path d="M.592 30.273v1.918h8.196v-3.775c0-.926.186-1.803.488-2.62a5.286 5.286 0 00-3.2-1.094c-2.995 0-5.484 2.494-5.484 5.57z" fill="url(#cpaint8_linear_32_3401)"/></g><defs><linearGradient id="cpaint0_linear_32_3401" x1="16.291" y1="14.541" x2="16.614" y2="24.409" gradientUnits="userSpaceOnUse"><stop stop-color="#FD749B"/><stop offset="1" stop-color="#281AC8"/></linearGradient><linearGradient id="cpaint1_linear_32_3401" x1="16.562" y1="21.374" x2="17.017" y2="37.935" gradientUnits="userSpaceOnUse"><stop stop-color="#FD749B"/><stop offset="1" stop-color="#281AC8"/></linearGradient><linearGradient id="cpaint2_linear_32_3401" x1="6.347" y1="16.398" x2="6.67" y2="26.265" gradientUnits="userSpaceOnUse"><stop stop-color="#FD749B"/><stop offset="1" stop-color="#281AC8"/></linearGradient><linearGradient id="cpaint3_linear_32_3401" x1="26.235" y1="16.398" x2="26.558" y2="26.265" gradientUnits="userSpaceOnUse"><stop stop-color="#FD749B"/><stop offset="1" stop-color="#281AC8"/></linearGradient><linearGradient id="cpaint4_linear_32_3401" x1="5.597" y1="-.969" x2="6.139" y2="15.586" gradientUnits="userSpaceOnUse"><stop stop-color="#FD749B"/><stop offset="1" stop-color="#281AC8"/></linearGradient><linearGradient id="cpaint5_linear_32_3401" x1="16.472" y1="-.969" x2="17.017" y2="15.586" gradientUnits="userSpaceOnUse"><stop stop-color="#FD749B"/><stop offset="1" stop-color="#281AC8"/></linearGradient><linearGradient id="cpaint6_linear_32_3401" x1="27.353" y1="-.969" x2="27.894" y2="15.586" gradientUnits="userSpaceOnUse"><stop stop-color="#FD749B"/><stop offset="1" stop-color="#281AC8"/></linearGradient><linearGradient id="cpaint7_linear_32_3401" x1="27.54" y1="23.523" x2="27.905" y2="36.794" gradientUnits="userSpaceOnUse"><stop stop-color="#FD749B"/><stop offset="1" stop-color="#281AC8"/></linearGradient><linearGradient id="cpaint8_linear_32_3401" x1="5.368" y1="23.523" x2="5.733" y2="36.794" gradientUnits="userSpaceOnUse"><stop stop-color="#FD749B"/><stop offset="1" stop-color="#281AC8"/></linearGradient><clipPath id="cclip0_32_3401"><path fill="#fff" transform="translate(.592 .502)" d="M0 0h30.856v31.689H0z"/></clipPath></defs></svg><svg fill="none" viewBox="0 0 15 11" id="double-transfer" xmlns="http://www.w3.org/2000/svg"><path d="M.257 3.845h11.022v1.538c0 .07.025.13.076.18.05.05.11.076.18.076a.249.249 0 00.184-.072l2.564-2.563a.25.25 0 00.072-.184.25.25 0 00-.072-.185L11.727.08a.301.301 0 00-.192-.08.25.25 0 00-.184.072.25.25 0 00-.072.184v1.538H.257c-.07 0-.13.026-.18.076A.246.246 0 000 2.05V3.59c0 .069.026.129.077.18.05.05.11.076.18.076z" fill="url(#dpaint0_linear_32_2832)"/><path d="M14.098 6.921H3.076V5.383c0-.07-.026-.13-.076-.18a.246.246 0 00-.18-.076.25.25 0 00-.185.072L.072 7.762A.25.25 0 000 7.946c0 .07.024.128.072.176l2.555 2.564c.064.053.129.08.193.08.069 0 .13-.026.18-.076.05-.051.076-.111.076-.18V8.97h11.022c.07 0 .13-.025.18-.076.051-.05.076-.11.076-.18V7.177c0-.07-.025-.13-.076-.18a.247.247 0 00-.18-.076z" fill="url(#dpaint1_linear_32_2832)"/><defs><linearGradient id="dpaint0_linear_32_2832" x1="7.895" y1="-.888" x2="8.02" y2="9.111" gradientUnits="userSpaceOnUse"><stop stop-color="#FD749B"/><stop offset="1" stop-color="#281AC8"/></linearGradient><linearGradient id="dpaint1_linear_32_2832" x1="7.895" y1="4.239" x2="8.02" y2="14.237" gradientUnits="userSpaceOnUse"><stop stop-color="#FD749B"/><stop offset="1" stop-color="#281AC8"/></linearGradient></defs></svg><svg fill="none" viewBox="0 0 17 16" id="email" xmlns="http://www.w3.org/2000/svg"><path fill-rule="evenodd" clip-rule="evenodd" d="M.296 4.474a.5.5 0 01.68-.194l7.396 4.116 7.396-4.116a.5.5 0 11.486.874l-7.64 4.251a.5.5 0 01-.485 0L.489 5.154a.5.5 0 01-.193-.68z" fill="url(#epaint0_linear_41_108)"/><path fill-rule="evenodd" clip-rule="evenodd" d="M1.75 1.497c-.266 0-.518.232-.518.563v11.69c0 .332.252.564.518.564h13.242c.266 0 .518-.232.518-.563V2.06c0-.331-.252-.563-.518-.563H1.75zM.232 2.06c0-.843.66-1.563 1.518-1.563h13.242c.858 0 1.518.72 1.518 1.563v11.69c0 .843-.66 1.564-1.519 1.564H1.752c-.859 0-1.52-.72-1.52-1.563V2.06z" fill="url(#epaint1_linear_41_108)"/><defs><linearGradient id="epaint0_linear_41_108" x1="9.186" y1="3.39" x2="9.281" y2="12.701" gradientUnits="userSpaceOnUse"><stop stop-color="#FD749B"/><stop offset="1" stop-color="#281AC8"/></linearGradient><linearGradient id="epaint1_linear_41_108" x1="9.185" y1="-1.835" x2="9.946" y2="24.417" gradientUnits="userSpaceOnUse"><stop stop-color="#FD749B"/><stop offset="1" stop-color="#281AC8"/></linearGradient></defs></svg><svg fill="none" viewBox="0 0 17 31" id="eth" xmlns="http://www.w3.org/2000/svg"><path d="M8.314 20.207L.205 16.349l8.11 14.172 8.11-14.172-8.11 3.858z" fill="url(#fpaint0_linear_41_60)"/><path d="M15.539 13.474L8.312.923 1.078 13.489l7.234-3.432 7.227 3.417z" fill="url(#fpaint1_linear_41_60)"/><path d="M1.707 15.117l6.608 3.13 6.618-3.135-6.618-3.13-6.608 3.135z" fill="url(#fpaint2_linear_41_60)"/><defs><linearGradient id="fpaint0_linear_41_60" x1="9.126" y1="14.118" x2="9.824" y2="39.229" gradientUnits="userSpaceOnUse"><stop stop-color="#FD749B"/><stop offset="1" stop-color="#281AC8"/></linearGradient><linearGradient id="fpaint1_linear_41_60" x1="9.031" y1="-1.055" x2="9.647" y2="21.21" gradientUnits="userSpaceOnUse"><stop stop-color="#FD749B"/><stop offset="1" stop-color="#281AC8"/></linearGradient><linearGradient id="fpaint2_linear_41_60" x1="8.981" y1="10.996" x2="9.149" y2="22.102" gradientUnits="userSpaceOnUse"><stop stop-color="#FD749B"/><stop offset="1" stop-color="#281AC8"/></linearGradient></defs></svg><svg fill="none" viewBox="0 0 70 40" id="gift" xmlns="http://www.w3.org/2000/svg"><path d="M.257 5a5 5 0 015-5h59.55a5 5 0 015 5v29.014a5 5 0 01-5 5H5.258a5 5 0 01-5-5V5z" fill="url(#gpaint0_linear_41_70)"/><path d="M24.033 25.643c0-.966.783-1.75 1.75-1.75h18.5a1.75 1.75 0 110 3.5h-18.5a1.75 1.75 0 01-1.75-1.75zM18.039 17.643a2.704 2.704 0 012.703-2.704h28.581a2.704 2.704 0 110 5.408h-28.58a2.704 2.704 0 01-2.704-2.704z" fill="#fff"/><defs><linearGradient id="gpaint0_linear_41_70" x1="38.51" y1="-6.141" x2="39.745" y2="63.019" gradientUnits="userSpaceOnUse"><stop stop-color="#FD749B"/><stop offset="1" stop-color="#281AC8"/></linearGradient></defs></svg><svg fill="none" viewBox="0 0 13 18" id="location" xmlns="http://www.w3.org/2000/svg"><path fill-rule="evenodd" clip-rule="evenodd" d="M6.308 1.225c-2.83 0-5.169 2.426-5.169 5.475 0 2.278 1.334 4.748 2.74 6.702a27.258 27.258 0 002.429 2.91 27.258 27.258 0 002.428-2.91c1.406-1.954 2.74-4.424 2.74-6.702 0-3.05-2.338-5.475-5.168-5.475zm0 15.796l-.346.361-.002-.001-.004-.004-.013-.013a10.141 10.141 0 01-.236-.236 28.276 28.276 0 01-2.64-3.142C1.64 12.002.14 9.311.14 6.7.14 3.15 2.876.225 6.308.225c3.431 0 6.168 2.924 6.168 6.475 0 2.611-1.5 5.302-2.928 7.286a28.276 28.276 0 01-2.64 3.142 16.325 16.325 0 01-.235.236l-.014.013-.004.004-.001.001-.346-.36zm0 0l.346.361a.5.5 0 01-.692 0l.346-.36z" fill="url(#hpaint0_linear_41_101)"/><path fill-rule="evenodd" clip-rule="evenodd" d="M3.231 6.7c0-1.751 1.353-3.216 3.077-3.216S9.384 4.949 9.384 6.7c0 1.75-1.352 3.216-3.076 3.216S3.23 8.45 3.23 6.7zm3.077-2.216c-1.122 0-2.077.967-2.077 2.216s.955 2.216 2.077 2.216c1.122 0 2.076-.967 2.076-2.216 0-1.25-.954-2.216-2.076-2.216z" fill="url(#hpaint1_linear_41_101)"/><defs><linearGradient id="hpaint0_linear_41_101" x1="6.925" y1="-2.498" x2="8.291" y2="28.113" gradientUnits="userSpaceOnUse"><stop stop-color="#FD749B"/><stop offset="1" stop-color="#281AC8"/></linearGradient><linearGradient id="hpaint1_linear_41_101" x1="6.616" y1="2.471" x2="6.995" y2="13.865" gradientUnits="userSpaceOnUse"><stop stop-color="#FD749B"/><stop offset="1" stop-color="#281AC8"/></linearGradient></defs></svg><svg fill="none" viewBox="0 0 33 33" id="medal" xmlns="http://www.w3.org/2000/svg"><g clip-path="url(#iclip0_32_3398)"><path d="M16.229 7.184a5.621 5.621 0 00-5.615 5.615 5.621 5.621 0 005.615 5.616 5.621 5.621 0 005.615-5.616 5.621 5.621 0 00-5.615-5.615z" fill="url(#ipaint0_linear_32_3398)"/><path d="M27.925 16.6l-1.703-3.8L27.925 9l-3.61-2.074-.857-4.076-4.14.446L16.23.502l-3.088 2.793-4.14-.444-.857 4.075-3.611 2.073 1.702 3.8-1.702 3.8 3.611 2.074.464 2.208-3.855 8.191 4.023.053 2.605 3.066 3.789-8.051 1.059.957 1.058-.957 3.79 8.051 2.604-3.066 4.023-.053-3.855-8.19.464-2.209 3.611-2.073zM16.23 20.27c-4.12 0-7.472-3.351-7.472-7.472 0-4.12 3.352-7.471 7.472-7.471 4.12 0 7.471 3.352 7.471 7.471 0 4.12-3.352 7.472-7.471 7.472z" fill="url(#ipaint1_linear_32_3398)"/></g><defs><linearGradient id="ipaint0_linear_32_3398" x1="16.79" y1="5.417" x2="17.424" y2="25.311" gradientUnits="userSpaceOnUse"><stop stop-color="#FD749B"/><stop offset="1" stop-color="#281AC8"/></linearGradient><linearGradient id="ipaint1_linear_32_3398" x1="17.399" y1="-4.486" x2="19.819" y2="51.603" gradientUnits="userSpaceOnUse"><stop stop-color="#FD749B"/><stop offset="1" stop-color="#281AC8"/></linearGradient><clipPath id="iclip0_32_3398"><path fill="#fff" transform="translate(.386 .502)" d="M0 0h31.689v31.689H0z"/></clipPath></defs></svg><svg fill="none" viewBox="0 0 16 17" id="phone" xmlns="http://www.w3.org/2000/svg"><path fill-rule="evenodd" clip-rule="evenodd" d="M3.246.286a.5.5 0 01.362.155L6.644 3.63a.5.5 0 010 .69L4.948 6.1l5.383 5.652 1.662-1.745a.5.5 0 01.725 0l3.036 3.188a.5.5 0 010 .69L13.73 16.01a.5.5 0 01-.362.155C6.36 16.166.72 10.208.72 2.912a.5.5 0 01.138-.345L2.884.44a.5.5 0 01.362-.155zM1.723 3.11c.1 6.623 5.183 11.936 11.432 12.054l1.547-1.624-2.346-2.463-1.663 1.745a.5.5 0 01-.724 0L3.896 6.445a.5.5 0 010-.69l1.696-1.78L3.246 1.51l-1.523 1.6z" fill="url(#jpaint0_linear_41_104)"/><path fill-rule="evenodd" clip-rule="evenodd" d="M8.312 3.974a.5.5 0 01.5-.5c2.256 0 4.043 1.913 4.043 4.22a.5.5 0 11-1 0c0-1.802-1.385-3.22-3.043-3.22a.5.5 0 01-.5-.5z" fill="url(#jpaint1_linear_41_104)"/><path fill-rule="evenodd" clip-rule="evenodd" d="M8.312.786a.5.5 0 01.5-.5c3.933 0 7.08 3.34 7.08 7.408a.5.5 0 01-1 0c0-3.563-2.744-6.408-6.08-6.408a.5.5 0 01-.5-.5z" fill="url(#jpaint2_linear_41_104)"/><defs><linearGradient id="jpaint0_linear_41_104" x1="9.065" y1="-2.214" x2="10.003" y2="25.914" gradientUnits="userSpaceOnUse"><stop stop-color="#FD749B"/><stop offset="1" stop-color="#281AC8"/></linearGradient><linearGradient id="jpaint1_linear_41_104" x1="10.811" y1="2.731" x2="11.088" y2="11.092" gradientUnits="userSpaceOnUse"><stop stop-color="#FD749B"/><stop offset="1" stop-color="#281AC8"/></linearGradient><linearGradient id="jpaint2_linear_41_104" x1="12.481" y1="-.959" x2="12.947" y2="13.049" gradientUnits="userSpaceOnUse"><stop stop-color="#FD749B"/><stop offset="1" stop-color="#281AC8"/></linearGradient></defs></svg><svg fill="none" viewBox="0 0 36 33" id="quality" xmlns="http://www.w3.org/2000/svg"><path d="M.184 11.082l15.388 20.013-6.98-20.013H.184z" fill="url(#kpaint0_linear_41_75)"/><path d="M9.963 11.082L17.4 32.404l7.582-21.322H9.963z" fill="url(#kpaint1_linear_41_75)"/><path d="M19.057 31.611L34.84 11.082h-8.485l-7.3 20.53z" fill="url(#kpaint2_linear_41_75)"/><path d="M28.82.288h-9.954l6.825 8.8 3.129-8.8z" fill="url(#kpaint3_linear_41_75)"/><path d="M24.53 9.733L17.513.684l-7.017 9.049H24.53z" fill="url(#kpaint4_linear_41_75)"/><path d="M16.16.288H6.198l3.09 8.86L16.16.288z" fill="url(#kpaint5_linear_41_75)"/><path d="M5.125 1.142L0 9.732h8.12l-2.995-8.59z" fill="url(#kpaint6_linear_41_75)"/><path d="M35.025 9.733l-5.13-8.6-3.06 8.6h8.19z" fill="url(#kpaint7_linear_41_75)"/><defs><linearGradient id="kpaint0_linear_41_75" x1="8.647" y1="7.932" x2="10.114" y2="43.359" gradientUnits="userSpaceOnUse"><stop stop-color="#FD749B"/><stop offset="1" stop-color="#281AC8"/></linearGradient><linearGradient id="kpaint1_linear_41_75" x1="18.224" y1="7.726" x2="19.93" y2="45.459" gradientUnits="userSpaceOnUse"><stop stop-color="#FD749B"/><stop offset="1" stop-color="#281AC8"/></linearGradient><linearGradient id="kpaint2_linear_41_75" x1="27.738" y1="7.851" x2="29.244" y2="44.192" gradientUnits="userSpaceOnUse"><stop stop-color="#FD749B"/><stop offset="1" stop-color="#281AC8"/></linearGradient><linearGradient id="kpaint3_linear_41_75" x1="24.34" y1="-1.097" x2="24.78" y2="14.496" gradientUnits="userSpaceOnUse"><stop stop-color="#FD749B"/><stop offset="1" stop-color="#281AC8"/></linearGradient><linearGradient id="kpaint4_linear_41_75" x1="18.215" y1="-.74" x2="18.544" y2="15.299" gradientUnits="userSpaceOnUse"><stop stop-color="#FD749B"/><stop offset="1" stop-color="#281AC8"/></linearGradient><linearGradient id="kpaint5_linear_41_75" x1="11.677" y1="-1.106" x2="12.122" y2="14.592" gradientUnits="userSpaceOnUse"><stop stop-color="#FD749B"/><stop offset="1" stop-color="#281AC8"/></linearGradient><linearGradient id="kpaint6_linear_41_75" x1="4.466" y1="-.21" x2="4.979" y2="15.006" gradientUnits="userSpaceOnUse"><stop stop-color="#FD749B"/><stop offset="1" stop-color="#281AC8"/></linearGradient><linearGradient id="kpaint7_linear_41_75" x1="31.34" y1="-.22" x2="31.849" y2="15.012" gradientUnits="userSpaceOnUse"><stop stop-color="#FD749B"/><stop offset="1" stop-color="#281AC8"/></linearGradient></defs></svg><svg fill="none" viewBox="0 0 12 12" id="star" xmlns="http://www.w3.org/2000/svg"><path d="M5.746 10.94l-2.2.9c-.5.2-1.1 0-1.3-.5-.1-.2-.1-.3-.1-.5l.2-2.4c0-.3-.1-.5-.2-.7l-1.6-1.8c-.3-.4-.3-1.1.1-1.4.2-.1.3-.2.5-.2l2.3-.5c.3-.1.5-.2.6-.5l1.2-2c.3-.5.9-.6 1.4-.3.1.1.3.2.3.3l1.2 2c.1.2.4.4.6.5l2.4.5c.5.1.9.7.7 1.2 0 .2-.1.3-.2.4l-1.5 1.8c-.2.2-.3.5-.2.7l.2 2.4c0 .6-.4 1-.9 1.1-.2 0-.3 0-.5-.1l-2.2-.9c-.3-.1-.5-.1-.8 0z" fill="url(#lpaint0_linear_41_74)"/><defs><linearGradient id="lpaint0_linear_41_74" x1="6.694" y1="-.87" x2="7.291" y2="18.739" gradientUnits="userSpaceOnUse"><stop stop-color="#FD749B"/><stop offset="1" stop-color="#281AC8"/></linearGradient></defs></svg><svg fill="none" viewBox="0 0 32 33" id="support" xmlns="http://www.w3.org/2000/svg"><g clip-path="url(#mclip0_32_3411)"><path d="M19.471 22.256H12.81c-5.475 0-9.935 4.46-9.935 9.935h26.562c-.029-5.445-4.49-9.935-9.965-9.935z" fill="url(#mpaint0_linear_32_3411)"/><path d="M17.328 17.708c.521 0 1.014.174 1.39.492h2.405a6.825 6.825 0 001.912-4.75c0-3.824-3.1-6.894-6.895-6.894a6.892 6.892 0 00-6.894 6.894 6.907 6.907 0 003.534 6.025c.232-1.014 1.13-1.767 2.173-1.767h2.375z" fill="url(#mpaint1_linear_32_3411)"/><path d="M5.944 14.03c.087.723.435 1.39.927 1.882.377.377.87.666 1.42.84-.03-.116-.03-.232-.03-.319v-5.619c0-.116 0-.232.03-.348-.55.145-1.014.435-1.42.84l-.116.116v-.232c0-.55.058-1.1.145-1.622.087-.55.232-1.071.435-1.564a6.885 6.885 0 01.695-1.477c.26-.464.58-.927.927-1.333a.22.22 0 00.058-.115.855.855 0 00.695-.232 8.993 8.993 0 016.373-2.636c2.288 0 4.634.869 6.372 2.636.203.203.464.26.695.232.03.029.03.086.058.115.348.406.667.87.927 1.333.261.463.493.956.695 1.477.174.522.32 1.043.435 1.593.087.522.145 1.072.145 1.623v.231c-.03-.058-.087-.087-.116-.116a3.495 3.495 0 00-1.42-.84c.03.116.03.232.03.348v5.59c0 .116 0 .232-.03.32.145-.03.29-.088.435-.146v1.825c0 .203-.029.406-.058.55a.814.814 0 01-.145.32.63.63 0 01-.231.144c-.116.029-.232.058-.377.058h-5.359c-.174-.29-.463-.492-.84-.492h-2.375a.933.933 0 00-.927.927c.029.52.434.926.956.926h2.375a1 1 0 00.84-.492h5.591c.203 0 .376-.058.55-.116.232-.087.406-.203.58-.377a1.91 1.91 0 00.347-.637c.058-.231.116-.521.116-.84V16l.087-.087c.492-.492.84-1.159.927-1.883.029-.029.058-.029.058-.058a.534.534 0 00.145-.347v-2.405c0-.608-.058-1.216-.145-1.795-.174-.609-.319-1.188-.522-1.767a8.619 8.619 0 00-.782-1.652 8.537 8.537 0 00-1.043-1.477c-.029-.058-.087-.087-.145-.116a.882.882 0 00-.231-.782A10.634 10.634 0 0016.14.502 10.75 10.75 0 008.55 3.63a.882.882 0 00-.232.782c-.057.03-.086.058-.144.116a8.534 8.534 0 00-1.043 1.478c-.29.52-.55 1.071-.782 1.65-.203.58-.377 1.16-.464 1.768-.116.579-.145 1.187-.145 1.796v2.404c0 .145.058.26.145.347.03.03.058.03.058.058z" fill="url(#mpaint2_linear_32_3411)"/></g><defs><linearGradient id="mpaint0_linear_32_3411" x1="17.483" y1="20.692" x2="17.693" y2="38.308" gradientUnits="userSpaceOnUse"><stop stop-color="#FD749B"/><stop offset="1" stop-color="#281AC8"/></linearGradient><linearGradient id="mpaint1_linear_32_3411" x1="16.83" y1="4.522" x2="17.513" y2="27.411" gradientUnits="userSpaceOnUse"><stop stop-color="#FD749B"/><stop offset="1" stop-color="#281AC8"/></linearGradient><linearGradient id="mpaint2_linear_32_3411" x1="17.196" y1="-2.704" x2="18.32" y2="33.372" gradientUnits="userSpaceOnUse"><stop stop-color="#FD749B"/><stop offset="1" stop-color="#281AC8"/></linearGradient><clipPath id="mclip0_32_3411"><path fill="#fff" transform="translate(.31 .502)" d="M0 0h31.689v31.689H0z"/></clipPath></defs></svg><svg fill="none" viewBox="0 0 15 6" id="transfer" xmlns="http://www.w3.org/2000/svg"><path d="M.256 3.845h11.022v1.538c0 .07.026.13.076.18.051.05.111.076.18.076a.249.249 0 00.185-.072l2.563-2.563a.25.25 0 00.072-.184.25.25 0 00-.072-.185L11.727.08a.301.301 0 00-.192-.08.25.25 0 00-.184.072.25.25 0 00-.073.184v1.538H.256c-.07 0-.13.026-.18.076A.246.246 0 000 2.05V3.59c0 .069.025.129.076.18.05.05.11.076.18.076z" fill="url(#npaint0_linear_32_2835)"/><defs><linearGradient id="npaint0_linear_32_2835" x1="7.895" y1="-.888" x2="8.02" y2="9.111" gradientUnits="userSpaceOnUse"><stop stop-color="#FD749B"/><stop offset="1" stop-color="#281AC8"/></linearGradient></defs></svg></svg>